<svg width="198" height="50" viewBox="0 0 198 50" fill="none" xmlns="http://www.w3.org/2000/svg">
<path d="M25 50C38.8071 50 50 38.8071 50 25C50 11.1929 38.8071 0 25 0C11.1929 0 0 11.1929 0 25C0 38.8071 11.1929 50 25 50Z" fill="url(#paint0_linear_502_105)"/>
<path d="M41.6113 28.6267C41.5186 28.3282 41.4036 28.0334 41.2701 27.746C41.2572 27.7145 41.2405 27.6829 41.2256 27.6514C41.1848 27.5661 41.1422 27.4808 41.0977 27.3955C41.0124 27.2324 40.9216 27.0711 40.8251 26.9134C40.7417 26.7781 40.6546 26.6427 40.5618 26.5074C40.5785 26.4592 40.5952 26.411 40.6119 26.3627C40.6583 26.2181 40.7028 26.0716 40.7398 25.9252C40.8511 25.5006 40.9197 25.0667 40.9438 24.6254C40.9512 24.4974 40.9549 24.3695 40.9549 24.2397C40.9549 23.8299 40.9178 23.4276 40.8455 23.0308C40.8344 22.9677 40.8214 22.9047 40.8084 22.8416C40.8715 22.7285 40.9327 22.6154 40.9902 22.5005C41.0513 22.38 41.1088 22.2576 41.1626 22.1352C41.3369 21.744 41.4741 21.3435 41.5742 20.9356C41.6762 20.5202 41.7393 20.0956 41.7615 19.6654C41.7615 19.6432 41.7634 19.6209 41.7652 19.5987C41.7689 19.5078 41.7708 19.4188 41.7708 19.328C41.7708 13.504 34.2057 8.7832 24.8717 8.7832C15.5377 8.7832 7.97266 13.504 7.97266 19.328C7.97266 19.8008 8.02272 20.268 8.12099 20.726C8.23039 21.2452 8.40097 21.7514 8.62718 22.2428C8.64202 22.2743 8.65685 22.3058 8.67168 22.3373C8.71247 22.4226 8.75512 22.5098 8.79962 22.5932C8.88491 22.7564 8.97577 22.9177 9.07219 23.0753C9.10371 23.1253 9.13338 23.1754 9.16675 23.2236C9.11669 23.3961 9.07404 23.5703 9.03325 23.7446C9.02213 23.7891 9.01285 23.8355 9.00358 23.88C8.91829 24.2731 8.8571 24.6736 8.81816 25.0778C8.78664 25.406 8.76995 25.7379 8.76995 26.0735C8.76995 26.5741 8.80519 27.0673 8.87564 27.5531C8.73843 27.8276 8.62162 28.1075 8.52149 28.3912C8.44547 28.6082 8.38058 28.827 8.32495 29.0495C8.22297 29.4648 8.15993 29.8894 8.13768 30.3214C8.13768 30.3437 8.13582 30.3659 8.13397 30.3882C8.13026 30.479 8.12841 30.5699 8.12841 30.6608C8.12841 33.939 10.5277 36.8704 14.2917 38.8043H14.2936C17.2121 40.3044 20.9501 41.2037 25.0275 41.2037C34.3614 41.2037 41.9265 36.4829 41.9265 30.6589C41.9247 29.9636 41.8171 29.2831 41.6113 28.6267ZM17.6886 34.0076L17.6923 34.0669L17.7609 35.2814C19.756 35.6782 21.905 35.8859 24.1208 35.8859C28.7507 35.8859 33.0876 34.9792 36.3324 33.3345C37.2039 32.8932 37.9641 32.413 38.6075 31.9031C37.8788 33.1213 36.7292 34.2505 35.2032 35.2202C32.2662 37.0874 28.339 38.1164 24.1467 38.1164C21.9477 38.1164 19.8209 37.8328 17.8722 37.2932L17.8981 37.7734L17.976 39.1437C16.3832 38.6634 14.9184 38.0163 13.6353 37.2153C11.134 35.6559 9.61361 33.6868 9.26317 31.5934C9.23536 31.4265 9.21496 31.2597 9.20198 31.0928C9.19827 31.0297 9.19457 30.9648 9.19086 30.9018C9.18715 30.8202 9.1853 30.7386 9.1853 30.6571C9.1853 30.3938 9.20384 30.1323 9.24092 29.8727C9.26132 29.7244 9.28728 29.5779 9.3188 29.4333C9.32065 29.4259 9.32251 29.4166 9.32436 29.4073C9.50236 28.6156 9.84909 27.8424 10.3553 27.1063C10.4999 26.8949 10.6575 26.6872 10.83 26.4814C10.8633 26.4406 10.8986 26.3998 10.9338 26.3572C11.1062 26.1569 11.2917 25.9604 11.49 25.7657C12.4209 26.5167 13.5093 27.186 14.7256 27.7571C15.5581 28.1465 16.4537 28.4914 17.3975 28.7825L17.416 29.1181L17.4401 29.5575L17.4494 29.7188L17.4958 30.5365C20.1268 31.2244 23.1047 31.5879 26.2086 31.5879C31.0424 31.5879 35.5704 30.7034 38.958 29.0958C39.0136 29.0699 39.0692 29.042 39.123 29.0161C38.8208 29.3869 38.4852 29.7448 38.1162 30.0878C37.4728 30.5458 36.7051 30.9778 35.8207 31.3746C32.6333 32.8042 28.3724 33.5922 23.8241 33.5922C21.6695 33.5922 19.5799 33.4161 17.6385 33.0768L17.6886 34.0076ZM13.4796 25.8825C13.055 25.6174 12.6582 25.3411 12.2929 25.0537C12.7027 24.7218 13.1514 24.4047 13.6353 24.1025C16.6614 22.2149 20.7072 21.1747 25.0256 21.1747C29.344 21.1747 33.3898 22.2149 36.4159 24.1025C36.8405 24.3676 37.2373 24.6439 37.6026 24.9313C37.1928 25.2632 36.7441 25.5803 36.2601 25.8825C33.2341 27.7701 29.1883 28.8103 24.8699 28.8103C20.5515 28.8103 16.5056 27.7701 13.4796 25.8825ZM40.3282 21.3824C40.1372 21.8942 39.8721 22.3929 39.5402 22.8769C39.3956 23.0883 39.2361 23.2978 39.0655 23.5036C39.0321 23.5444 38.9969 23.5852 38.9617 23.626C38.7892 23.8262 38.6038 24.0228 38.4054 24.2175C37.4765 23.4684 36.3881 22.7971 35.1736 22.2279C35.1736 22.2279 35.1717 22.2261 35.1699 22.2261C34.3299 21.6958 33.4102 21.2341 32.4275 20.8428L32.409 20.4127L32.4016 20.2532L32.3663 19.4392C29.7445 18.7587 26.7778 18.3953 23.6869 18.3953C18.853 18.3953 14.3251 19.2816 10.9375 20.8873C10.7428 20.98 10.5537 21.0746 10.3701 21.1692C10.3664 21.171 10.3646 21.1729 10.3627 21.1729C10.3646 21.1692 10.3683 21.1673 10.3701 21.1636C11.16 20.2254 12.4116 19.3558 14.0748 18.6085C17.2621 17.1771 21.5231 16.3891 26.0732 16.3891C28.2278 16.3891 30.3156 16.5652 32.2588 16.9046L32.218 15.92L32.1772 14.9892L32.1642 14.711C31.4448 14.5664 30.7031 14.4478 29.9485 14.3532C28.6005 14.1863 27.2024 14.0992 25.7747 14.0992C21.5064 14.0992 17.4883 14.8687 14.3436 16.2778H14.3418C14.0748 16.3965 13.8152 16.5207 13.5612 16.6505C12.6897 17.0918 11.9295 17.5721 11.2879 18.0801C11.5994 17.5591 11.9888 17.0547 12.4505 16.5726C13.068 15.9255 13.8171 15.3192 14.6904 14.7648C17.6274 12.8976 21.5546 11.8686 25.7469 11.8686C27.9682 11.8686 30.1135 12.1578 32.0771 12.7067L31.9992 10.8655C33.5586 11.342 34.9974 11.9817 36.2583 12.7679C38.7596 14.3291 40.28 16.2964 40.6323 18.3897C40.6601 18.5566 40.6805 18.7216 40.6935 18.8904C40.6972 18.9553 40.7009 19.0183 40.7046 19.0832C40.7083 19.1648 40.7102 19.2464 40.7102 19.3261C40.7102 19.5894 40.6916 19.8508 40.6546 20.1104C40.623 20.3385 40.5767 20.5647 40.5173 20.7872C40.4654 20.9856 40.4024 21.184 40.3282 21.3824Z" fill="white"/>
<path d="M85.7694 24.5254V33.9725H80.9856V25.2615C80.9856 22.5934 79.7897 21.3659 77.8576 21.3659C75.7104 21.3659 74.2085 22.7454 74.2085 25.6898V33.9706H69.4247V25.2597C69.4247 22.5915 68.29 21.364 66.2967 21.364C64.1811 21.364 62.6774 22.7436 62.6774 25.688V33.9688H57.8936V17.4684H62.4641V19.3708C63.6916 17.9597 65.531 17.2236 67.6466 17.2236C69.9476 17.2236 71.9094 18.1136 73.0756 19.9233C74.394 18.236 76.5411 17.2236 79.0257 17.2236C82.9473 17.2255 85.7694 19.495 85.7694 24.5254Z" fill="white"/>
<path d="M89.4814 12.5009C89.4814 10.9972 90.6774 9.83276 92.4574 9.83276C94.2356 9.83276 95.4334 10.9379 95.4334 12.4101C95.4334 14.0047 94.2374 15.171 92.4574 15.171C90.6774 15.171 89.4814 14.0047 89.4814 12.5009ZM90.0637 17.4702H94.8475V33.9706H90.0637V17.4702Z" fill="white"/>
<path d="M109.785 33.9705L106.166 28.9105L102.424 33.9705H97.21L103.559 25.6582L97.425 17.4683H102.793L106.29 22.2836L109.878 17.4683H114.969L108.836 25.534L115.216 33.9687H109.785V33.9705Z" fill="white"/>
<path d="M116.378 31.2115C116.378 29.4334 117.696 28.2671 119.354 28.2671C121.01 28.2671 122.33 29.4334 122.33 31.2115C122.33 32.96 121.012 34.2172 119.354 34.2172C117.698 34.2172 116.378 32.9582 116.378 31.2115Z" fill="white"/>
<path d="M142.389 17.4702V31.2116C142.389 37.3453 139.077 40.1673 133.125 40.1673C129.997 40.1673 126.96 39.3997 125.028 37.8978L126.93 34.462C128.341 35.5968 130.642 36.3329 132.758 36.3329C136.133 36.3329 137.605 34.7995 137.605 31.8235V31.1189C136.348 32.4984 134.538 33.1734 132.391 33.1734C127.82 33.1734 124.14 30.0138 124.14 25.1985C124.14 20.3832 127.82 17.2236 132.391 17.2236C134.692 17.2236 136.592 17.9913 137.85 19.5859V17.4702H142.389ZM137.664 25.2003C137.664 22.7769 135.854 21.1508 133.34 21.1508C130.826 21.1508 128.985 22.7769 128.985 25.2003C128.985 27.6238 130.824 29.248 133.34 29.248C135.854 29.248 137.664 27.6219 137.664 25.2003Z" fill="white"/>
<path d="M163.46 17.4701V33.9705H158.921V32.0088C157.663 33.4495 155.822 34.2171 153.799 34.2171C149.659 34.2171 146.744 31.8864 146.744 26.7948V17.4701H151.528V26.0884C151.528 28.8493 152.755 30.0749 154.871 30.0749C157.079 30.0749 158.674 28.6638 158.674 25.6267V17.4683H163.46V17.4701Z" fill="white"/>
<path d="M178.151 17.2253V21.642C177.752 21.6105 177.446 21.5808 177.077 21.5808C174.439 21.5808 172.692 23.0215 172.692 26.1811V33.9724H167.908V17.472H172.479V19.6488C173.641 18.0523 175.605 17.2253 178.151 17.2253Z" fill="white"/>
<path d="M197.749 17.4701V33.9705H193.21V32.0088C191.953 33.4495 190.111 34.2171 188.088 34.2171C183.948 34.2171 181.033 31.8864 181.033 26.7948V17.4701H185.817V26.0884C185.817 28.8493 187.044 30.0749 189.16 30.0749C191.368 30.0749 192.963 28.6638 192.963 25.6267V17.4683H197.749V17.4701Z" fill="white"/>
<defs>
<linearGradient id="paint0_linear_502_105" x1="25.0008" y1="-0.551862" x2="25.0008" y2="49.9243" gradientUnits="userSpaceOnUse">
<stop stop-color="#02FCFF"/>
<stop offset="0.5" stop-color="#4B65F1"/>
<stop offset="1" stop-color="#FA03FF"/>
</linearGradient>
</defs>
</svg>
