<svg width="116" height="19" viewBox="0 0 116 19" fill="none" xmlns="http://www.w3.org/2000/svg">
<path d="M12.5391 18L11.0977 13.6289H4.875L3.43359 18H0.316406L6.31641 1.08984H9.72656L15.7266 18H12.5391ZM7.94531 4.07812L5.57812 11.2969H10.3828L8.02734 4.07812H7.94531ZM24.6328 18H17.543V1.08984H24.5625C27.6328 1.08984 29.6133 2.74219 29.6133 5.30859C29.6133 7.125 28.2656 8.70703 26.5312 8.98828V9.08203C28.8281 9.30469 30.4336 10.957 30.4336 13.1953C30.4336 16.1719 28.2422 18 24.6328 18ZM20.5664 3.44531V8.21484H23.332C25.4414 8.21484 26.625 7.32422 26.625 5.75391C26.625 4.27734 25.6055 3.44531 23.8008 3.44531H20.5664ZM20.5664 15.6445H23.9414C26.168 15.6445 27.3516 14.7188 27.3516 12.9844C27.3516 11.2617 26.1328 10.3594 23.8125 10.3594H20.5664V15.6445ZM40.043 0.808594C44.9648 0.808594 48.0586 4.17188 48.0586 9.55078C48.0586 14.9297 44.9648 18.2812 40.043 18.2812C35.1094 18.2812 32.0156 14.9297 32.0156 9.55078C32.0156 4.17188 35.1094 0.808594 40.043 0.808594ZM40.043 3.38672C37.0195 3.38672 35.1094 5.77734 35.1094 9.55078C35.1094 13.3125 37.0195 15.7031 40.043 15.7031C43.0547 15.7031 44.9766 13.3125 44.9766 9.55078C44.9766 5.77734 43.0547 3.38672 40.043 3.38672ZM53.4961 1.08984V11.7656C53.4961 14.0742 54.9141 15.6445 57.4219 15.6445C59.9297 15.6445 61.3594 14.0742 61.3594 11.7656V1.08984H64.3711V12.0352C64.3711 15.7266 61.7109 18.2812 57.4219 18.2812C53.1445 18.2812 50.4727 15.7266 50.4727 12.0352V1.08984H53.4961ZM74.5195 18H71.5078V3.64453H66.4453V1.08984H79.5703V3.64453H74.5195V18ZM89.4727 1.08984V11.7656C89.4727 14.0742 90.8906 15.6445 93.3984 15.6445C95.9062 15.6445 97.3359 14.0742 97.3359 11.7656V1.08984H100.348V12.0352C100.348 15.7266 97.6875 18.2812 93.3984 18.2812C89.1211 18.2812 86.4492 15.7266 86.4492 12.0352V1.08984H89.4727ZM102.656 13.2422H105.586C105.773 14.8008 107.332 15.8203 109.395 15.8203C111.434 15.8203 112.852 14.8125 112.852 13.4062C112.852 12.1875 111.984 11.4844 109.852 10.9805L107.66 10.4648C104.543 9.75 103.066 8.25 103.066 5.83594C103.066 2.83594 105.68 0.808594 109.359 0.808594C113.086 0.808594 115.547 2.82422 115.617 5.80078H112.734C112.594 4.21875 111.27 3.26953 109.336 3.26953C107.426 3.26953 106.137 4.20703 106.137 5.61328C106.137 6.73828 106.992 7.39453 109.066 7.88672L111.012 8.33203C114.445 9.11719 115.898 10.5352 115.898 13.0547C115.898 16.2656 113.32 18.2812 109.23 18.2812C105.34 18.2812 102.785 16.3594 102.656 13.2422Z" fill="url(#paint0_linear_517_18807)"/>
<defs>
<linearGradient id="paint0_linear_517_18807" x1="4.84754e-06" y1="-7.90352" x2="111.437" y2="38.3916" gradientUnits="userSpaceOnUse">
<stop stop-color="#02FCFF"/>
<stop offset="0.5" stop-color="#4B65F1"/>
<stop offset="1" stop-color="#FA03FF"/>
</linearGradient>
</defs>
</svg>
