<svg width="25" height="22" viewBox="0 0 25 22" fill="none" xmlns="http://www.w3.org/2000/svg">
<path d="M3.22222 6.55177C3.03999 6.54707 2.90766 6.53652 2.78869 6.51286C1.90715 6.33751 1.21805 5.6484 1.0427 4.76687C1 4.5522 1 4.29406 1 3.77778C1 3.26149 1 3.00335 1.0427 2.78869C1.21805 1.90715 1.90715 1.21805 2.78869 1.0427C3.00335 1 3.26149 1 3.77778 1H20.4444C20.9607 1 21.2189 1 21.4335 1.0427C22.3151 1.21805 23.0042 1.90715 23.1795 2.78869C23.2222 3.00335 23.2222 3.26149 23.2222 3.77778C23.2222 4.29406 23.2222 4.5522 23.1795 4.76687C23.0042 5.6484 22.3151 6.33751 21.4335 6.51286C21.3146 6.53652 21.1822 6.54707 21 6.55177M9.88889 12.1111H14.3333M3.22222 6.55556H21V15.6667C21 17.5335 21 18.4669 20.6367 19.18C20.3171 19.8072 19.8072 20.3171 19.18 20.6367C18.4669 21 17.5335 21 15.6667 21H8.55556C6.68871 21 5.75529 21 5.04225 20.6367C4.41505 20.3171 3.90511 19.8072 3.58553 19.18C3.22222 18.4669 3.22222 17.5335 3.22222 15.6667V6.55556Z" stroke="white" stroke-width="2" stroke-linecap="round" stroke-linejoin="round"/>
</svg>
