<svg width="84" height="84" viewBox="0 0 84 84" fill="none" xmlns="http://www.w3.org/2000/svg">
<rect x="0.5" y="0.5" width="83" height="83" rx="15.5" fill="url(#paint0_linear_625_4126)" stroke="url(#paint1_linear_625_4126)"/>
<path d="M57 40.6286V42.0086C56.9982 45.2432 55.9508 48.3906 54.014 50.9813C52.0773 53.572 49.3549 55.4673 46.253 56.3844C43.1511 57.3016 39.8359 57.1914 36.8017 56.0705C33.7675 54.9495 31.177 52.8777 29.4164 50.1642C27.6559 47.4506 26.8197 44.2407 27.0325 41.0131C27.2453 37.7854 28.4958 34.7131 30.5974 32.2542C32.699 29.7953 35.5392 28.0817 38.6943 27.3688C41.8494 26.656 45.1504 26.9821 48.105 28.2986M57 30L42 45.015L37.5 40.515" stroke="#35FF3D" stroke-width="3" stroke-linecap="round" stroke-linejoin="round"/>
<defs>
<linearGradient id="paint0_linear_625_4126" x1="-18.4161" y1="-19.6816" x2="105.27" y2="24.6278" gradientUnits="userSpaceOnUse">
<stop stop-color="#202054"/>
<stop offset="1" stop-color="#07073B" stop-opacity="0.6"/>
</linearGradient>
<linearGradient id="paint1_linear_625_4126" x1="42" y1="0" x2="42" y2="84" gradientUnits="userSpaceOnUse">
<stop stop-color="#3E3E72"/>
<stop offset="1" stop-color="#3E3E72" stop-opacity="0"/>
</linearGradient>
</defs>
</svg>
