<svg width="65" height="64" viewBox="0 0 65 64" fill="none" xmlns="http://www.w3.org/2000/svg">
<rect x="1.16602" y="0.5" width="63" height="63" rx="11.5" fill="#202054" stroke="url(#paint0_linear_720_52)"/>
<path d="M28.166 23H35.266C37.5062 23 38.6263 23 39.482 23.436C40.2346 23.8195 40.8465 24.4314 41.23 25.184C41.666 26.0397 41.666 27.1598 41.666 29.4V36.5M26.866 41H34.966C36.0861 41 36.6462 41 37.074 40.782C37.4503 40.5903 37.7563 40.2843 37.948 39.908C38.166 39.4802 38.166 38.9201 38.166 37.8V29.7C38.166 28.5799 38.166 28.0198 37.948 27.592C37.7563 27.2157 37.4503 26.9097 37.074 26.718C36.6462 26.5 36.0861 26.5 34.966 26.5H26.866C25.7459 26.5 25.1859 26.5 24.758 26.718C24.3817 26.9097 24.0757 27.2157 23.884 27.592C23.666 28.0198 23.666 28.5799 23.666 29.7V37.8C23.666 38.9201 23.666 39.4802 23.884 39.908C24.0757 40.2843 24.3817 40.5903 24.758 40.782C25.1859 41 25.7459 41 26.866 41Z" stroke="white" stroke-width="1.5" stroke-linecap="round" stroke-linejoin="round"/>
<defs>
<linearGradient id="paint0_linear_720_52" x1="32.666" y1="0" x2="32.666" y2="64" gradientUnits="userSpaceOnUse">
<stop stop-color="#3E3E72"/>
<stop offset="1" stop-color="#3E3E72" stop-opacity="0"/>
</linearGradient>
</defs>
</svg>
