<svg width="41" height="31" viewBox="0 0 41 31" fill="none" xmlns="http://www.w3.org/2000/svg">
<path d="M15.8627 26.0476C16.77 28.2112 18.445 30.8546 20.6958 30.8546C22.9554 30.8546 24.6304 28.2199 25.5377 26.0476C22.3447 25.7074 19.0644 25.7074 15.8627 26.0476ZM17.2149 30.4445C16.0982 29.3279 15.2433 27.7837 14.6151 26.1959C13.2367 26.3791 11.8845 26.6234 10.5759 26.92C12.4428 28.6299 14.7198 29.8513 17.2149 30.4445ZM26.794 26.1959C26.1658 27.775 25.3109 29.3191 24.1855 30.4445C26.6893 29.8513 28.9663 28.6299 30.8332 26.9287C29.5246 26.6234 28.1724 26.3791 26.794 26.1959ZM25.5464 5.5983C24.6391 3.43473 22.9641 0.800049 20.7046 0.800049C18.445 0.800049 16.77 3.43473 15.8714 5.5983C19.0644 5.93854 22.3447 5.93854 25.5464 5.5983ZM24.1855 1.20136C25.3109 2.32677 26.1658 3.87093 26.794 5.44999C28.1724 5.26679 29.5246 5.02251 30.8332 4.71717C28.9663 3.01597 26.6893 1.7946 24.1855 1.20136ZM14.6151 5.44999C15.2433 3.87093 16.0982 2.32677 17.2149 1.20136C14.7198 1.7946 12.4428 3.01597 10.5672 4.71717C11.8845 5.02251 13.2367 5.26679 14.6151 5.44999ZM38.0306 10.7804H3.37849C1.90412 10.7804 0.700195 11.9843 0.700195 13.4587V18.1872C0.700195 19.6528 1.90412 20.8655 3.37849 20.8655H38.0219C39.4963 20.8655 40.7002 19.6616 40.7002 18.1872V13.4587C40.7002 11.9843 39.4963 10.7804 38.0306 10.7804ZM13.4287 22.0869H7.04262C7.6882 23.4914 8.54316 24.7826 9.57261 25.9167C11.0819 25.5416 12.626 25.245 14.1964 25.0269C13.891 24.1021 13.638 23.125 13.4287 22.0869ZM26.7416 22.0869H14.6675C14.8769 23.0727 15.1211 24.0062 15.4178 24.8698C18.9074 24.4773 22.493 24.4773 25.9826 24.8698C26.2793 24.0062 26.5323 23.0727 26.7416 22.0869ZM34.3665 22.0869H27.9805C27.7711 23.125 27.5181 24.1108 27.2127 25.0181C28.7831 25.2363 30.3272 25.5416 31.8365 25.908C32.866 24.7826 33.7209 23.4914 34.3665 22.0869ZM13.4287 9.55904C13.638 8.52088 13.891 7.53505 14.1964 6.62775C12.6173 6.40965 11.0819 6.1043 9.57261 5.73789C8.54316 6.87202 7.6882 8.16319 7.04262 9.56777H13.4287V9.55904ZM26.7416 9.55904C26.5323 8.57322 26.2793 7.63974 25.9914 6.77606C22.493 7.16864 18.9161 7.16864 15.4265 6.77606C15.1299 7.63974 14.8769 8.57322 14.6762 9.55904H26.7416ZM34.3665 9.55904C33.7209 8.15446 32.866 6.8633 31.8365 5.72917C30.3272 6.1043 28.7831 6.40092 27.2127 6.61902C27.5094 7.53505 27.7711 8.51215 27.9805 9.55032H34.3665V9.55904ZM35.5006 14.3573C34.4363 14.3573 33.9041 15.6485 34.6544 16.3987C35.4047 17.149 36.6958 16.6168 36.6958 15.5525C36.6871 14.8895 36.1549 14.3573 35.5006 14.3573ZM37.5857 16.7739L38.2836 17.4718C38.5192 17.7074 38.5192 18.0999 38.2836 18.3355C38.0481 18.571 37.6555 18.571 37.4199 18.3355L36.7307 17.6376C35.1342 18.5798 33.0928 17.4282 33.0928 15.5525C33.0928 13.4064 35.7013 12.3246 37.2193 13.8426C37.9957 14.6277 38.1266 15.8404 37.5857 16.7739Z" fill="url(#paint0_linear_574_2727)"/>
<defs>
<linearGradient id="paint0_linear_574_2727" x1="7.30546" y1="12.4462" x2="23.6186" y2="40.5544" gradientUnits="userSpaceOnUse">
<stop stop-color="#02FCFF"/>
<stop offset="1" stop-color="#FA03FF"/>
</linearGradient>
</defs>
</svg>
