<svg width="30" height="53" viewBox="0 0 30 53" fill="none" xmlns="http://www.w3.org/2000/svg">
<path d="M17.6353 18.2076V11.5668C19.723 10.5623 21.0862 8.43317 21.0862 6.08618C21.0862 2.73056 18.3556 0 15 0C11.6444 0 8.91382 2.73056 8.91382 6.08618C8.91382 8.43317 10.277 10.5623 12.3647 11.5668V13.6664C12.3647 13.6664 10.158 13.6664 9.44004 13.6664C9.13993 13.6664 9.12158 13.7676 9.12158 14.0375C9.12158 14.5123 9.12158 15.4617 9.12158 15.937C9.12158 16.2087 9.21215 16.2738 9.45839 16.2738C9.93726 16.2738 11.3745 16.2738 11.3745 16.2738V17.6205C11.3745 17.6205 10.3516 17.6205 10.0107 17.6205C9.75613 17.6205 9.64958 17.7371 9.64958 17.9744C9.64958 18.1118 9.64958 18.5243 9.64958 18.5243C9.64958 18.5273 9.65017 18.5297 9.65017 18.5326C3.83331 19.498 0 21.9859 0 25.0438V45.2847C0 49.2435 6.44844 52.2286 15 52.2286C23.5516 52.2286 30 49.2435 30 45.2847V25.0432C29.9994 21.5319 24.9473 18.77 17.6353 18.2076ZM12.8069 6.08618C12.8069 4.87747 13.7907 3.89369 14.9994 3.89369C16.2081 3.89369 17.1919 4.87747 17.1919 6.08618C17.1919 7.2949 16.2081 8.27868 14.9994 8.27868C13.7907 8.27868 12.8069 7.2949 12.8069 6.08618ZM17.6353 23.4391C17.6631 23.4497 17.6927 23.4604 17.7211 23.4705V24.591C17.6921 24.6016 17.6637 24.6129 17.6353 24.6235V23.4391ZM12.6577 24.2814V24.7271C12.5938 24.7094 12.534 24.6892 12.4743 24.6697V24.2808L12.6577 24.2814ZM12.1801 24.2814V24.5608C12.1398 24.5436 12.096 24.5276 12.0587 24.5099C12.0469 24.504 12.0333 24.5051 12.0208 24.501V24.2814H12.1801ZM11.7266 24.2814V24.4809H11.5674V24.2814H11.7266ZM11.2732 24.2814V24.4809H11.114V24.2814H11.2732ZM10.8198 24.2814V24.4809H10.6606V24.2814H10.8198ZM10.3658 24.2814V24.4809H10.2066V24.2814H10.3658ZM9.91239 24.2814V24.4809H9.75317V24.2731C9.76797 24.2743 9.78039 24.282 9.79578 24.282L9.91239 24.2814ZM9.45898 24.163V24.4815H9.29975V24.1423H9.42879C9.43826 24.15 9.44892 24.1559 9.45898 24.163ZM27.6459 42.0392C26.0631 44.0227 21.3774 45.7606 14.9994 45.7606C8.6214 45.7606 3.93572 44.0221 2.35291 42.0392V40.2954C4.7798 42.2564 9.48088 44.034 14.9994 44.034C20.5185 44.034 25.219 42.2558 27.6459 40.2954V42.0392ZM27.6459 34.9787C26.0631 36.9622 21.3774 38.7001 14.9994 38.7001C8.6214 38.7001 3.93572 36.9616 2.35291 34.9787V33.2349C4.7798 35.1959 9.48088 36.9735 14.9994 36.9735C20.5185 36.9735 25.219 35.1953 27.6459 33.2349V34.9787ZM27.6459 26.3206C26.2377 28.3598 21.5141 30.1924 14.9994 30.1924C8.48467 30.1924 3.7611 28.3598 2.35291 26.3206V25.0432C2.35291 23.1988 6.4733 21.0027 12.6583 20.544V21.6982C12.6583 21.6982 11.32 21.6982 10.8737 21.6982C10.5842 21.6982 10.4505 21.7823 10.4505 22.0996C10.4505 22.463 10.4505 23.5533 10.4505 23.5533H8.52551C8.41896 23.5533 8.14017 23.6107 8.08808 23.7037L7.56837 24.6312C7.51746 24.7224 7.51865 24.8337 7.57133 24.9236C7.62401 25.0136 7.72049 25.0693 7.82526 25.0693H11.8669C12.6063 25.4043 13.7149 25.589 15 25.589C17.0309 25.589 19.0867 25.055 19.0867 24.034C19.0867 23.5297 18.5616 23.1076 17.6358 22.8264V20.5665C23.6575 21.0714 27.6471 23.2284 27.6471 25.0432V26.3206H27.6459ZM9.00556 24.1423V24.4815H8.84634V24.1423H9.00556ZM8.55156 24.1423V24.4815H8.32663L8.51663 24.1423H8.55156ZM18.0147 24.469V23.5959C18.0697 23.6232 18.12 23.6504 18.165 23.677V24.3832C18.1177 24.4116 18.0727 24.44 18.0147 24.469Z" fill="white"/>
</svg>
