<svg width="40" height="40" viewBox="0 0 40 40" fill="none" xmlns="http://www.w3.org/2000/svg">
<path fill-rule="evenodd" clip-rule="evenodd" d="M6.66667 0H1.33333C0.596954 0 0 0.596954 0 1.33333V6.66667C0 7.40305 0.596954 8 1.33333 8H6.66667C7.40305 8 8 7.40305 8 6.66667V1.33333C8 0.596954 7.40305 0 6.66667 0ZM20 32C22.3734 32 24.6935 31.2962 26.6668 29.9776C28.6402 28.6591 30.1783 26.7849 31.0866 24.5922C31.9948 22.3995 32.2325 19.9867 31.7694 17.6589C31.3064 15.3311 30.1635 13.193 28.4853 11.5147C26.8071 9.83649 24.6689 8.6936 22.3411 8.23058C20.0133 7.76756 17.6005 8.0052 15.4078 8.91345C13.2151 9.8217 11.3409 11.3598 10.0224 13.3332C8.70379 15.3065 8 17.6266 8 20C8 23.1826 9.26428 26.2348 11.5147 28.4853C13.7652 30.7357 16.8174 32 20 32ZM16 22.2267H20.8933C20.9986 22.2084 21.094 22.1536 21.1627 22.0719C21.2315 21.9902 21.2692 21.8868 21.2692 21.78C21.2692 21.6732 21.2315 21.5698 21.1627 21.4881C21.094 21.4064 20.9986 21.3516 20.8933 21.3333H19.1067C18.3304 21.3198 17.5873 21.0162 17.0238 20.4821C16.4602 19.9481 16.1171 19.2224 16.0619 18.448C16.0067 17.6736 16.2435 16.9066 16.7256 16.298C17.2077 15.6895 17.9002 15.2835 18.6667 15.16V13.3333H21.3333V15.1067H24V17.7733H19.1067C19.0014 17.7916 18.906 17.8464 18.8373 17.9281C18.7685 18.0098 18.7308 18.1132 18.7308 18.22C18.7308 18.3268 18.7685 18.4302 18.8373 18.5119C18.906 18.5936 19.0014 18.6484 19.1067 18.6667H20.8933C21.6696 18.6802 22.4127 18.9838 22.9762 19.5179C23.5398 20.0519 23.8829 20.7776 23.9381 21.552C23.9933 22.3264 23.7565 23.0934 23.2744 23.702C22.7923 24.3106 22.0998 24.7165 21.3333 24.84V26.6667H18.6667V24.8933H16V22.2267ZM33.3333 0H38.6667C39.403 0 40 0.596954 40 1.33333V6.66667C40 7.40305 39.403 8 38.6667 8H33.3333C32.597 8 32 7.40305 32 6.66667V1.33333C32 0.596954 32.597 0 33.3333 0ZM6.66667 32H1.33333C0.596954 32 0 32.597 0 33.3333V38.6667C0 39.403 0.596954 40 1.33333 40H6.66667C7.40305 40 8 39.403 8 38.6667V33.3333C8 32.597 7.40305 32 6.66667 32ZM33.3333 32H38.6667C39.403 32 40 32.597 40 33.3333V38.6667C40 39.403 39.403 40 38.6667 40H33.3333C32.597 40 32 39.403 32 38.6667V33.3333C32 32.597 32.597 32 33.3333 32ZM29.3337 2.66675H10.667V5.33342H29.3337V2.66675ZM10.667 34.6667H29.3337V37.3334H10.667V34.6667ZM37.3337 10.6667H34.667V29.3334H37.3337V10.6667ZM2.66699 10.6667H5.33366V29.3334H2.66699V10.6667Z" fill="url(#paint0_linear_886_82)"/>
<defs>
<linearGradient id="paint0_linear_886_82" x1="6.60526" y1="15.5" x2="30.7992" y2="46.8223" gradientUnits="userSpaceOnUse">
<stop stop-color="#02FCFF"/>
<stop offset="1" stop-color="#FA03FF"/>
</linearGradient>
</defs>
</svg>
