<svg width="41" height="47" viewBox="0 0 41 47" fill="none" xmlns="http://www.w3.org/2000/svg">
<path d="M22.8107 2.45815L20.3517 8.42415C19.7304 9.75553 21.7967 10.6126 22.3002 9.23008L24.7634 3.26266C25.3961 1.73672 23.2808 1.32062 22.8107 2.45815Z" fill="white"/>
<path d="M16.3581 0.790848C15.7773 0.802209 15.3108 1.28293 15.3179 1.86731L15.315 8.13864C15.2731 8.75001 15.7588 9.26765 16.3688 9.26765C16.9787 9.26765 17.463 8.75001 17.4225 8.13864L17.4253 1.86731C17.4374 1.27085 16.9532 0.783747 16.3581 0.790848Z" fill="white"/>
<path d="M28.9839 6.68245L24.568 11.1204C23.5724 12.1187 25.07 13.6085 26.0655 12.6115L30.4814 8.17218C31.5763 7.0737 29.9233 5.73664 28.9839 6.68245Z" fill="white"/>
<path d="M9.10214 8.78335C11.5164 11.8082 11.8785 13.5792 11.9339 19.6524C11.9673 20.0408 12.3443 20.3042 12.7185 20.1991L37.6597 14.1096C39.0088 13.7794 40.414 14.6379 40.74 15.8002C41.0396 16.8817 40.6221 18.1136 38.9023 18.6142L17.6031 24.7649C16.2831 25.1199 15.2954 26.239 14.9957 27.6456C14.7003 29.0395 15.0887 30.4859 16.0431 31.5439C16.516 32.0679 17.1011 32.4535 17.7295 32.663C17.2928 33.1593 16.9747 33.7792 16.8305 34.4729C16.5309 35.8654 16.9193 37.3189 17.8736 38.3783C18.3288 38.8846 18.8876 39.2496 19.489 39.4654C19.1311 39.8815 18.8677 40.392 18.7456 40.9629C18.4836 42.1573 18.7789 43.4425 19.6445 44.3081C19.9257 44.5893 19.9328 44.8555 19.4201 44.9933L17.9027 45.4037C14.1635 46.4134 10.6132 47.1235 7.62164 45.7474C4.4306 44.2825 2.10086 40.7506 1.06061 36.7494C0.510307 32.7105 0.971851 28.5062 2.11861 25.1554L4.64149 17.7884C5.56528 15.0923 5.12575 13.3754 3.95627 10.2688C2.41542 6.16888 7.65573 6.97481 9.10214 8.78335Z" fill="white"/>
<path d="M29.2728 24.341C29.9608 25.0958 30.3407 26.2383 30.0382 27.2118C29.6946 28.3394 29.0796 28.9465 28.0997 29.2092L19.4206 31.539C18.5841 31.7598 17.6525 31.4722 16.9716 30.711C16.2807 29.9442 16.0037 28.9124 16.2167 27.9027C16.4319 26.9044 17.0901 26.1943 17.9252 25.9649L26.7677 23.5351C27.7085 23.2759 28.7246 23.7431 29.2728 24.341Z" fill="white"/>
<path d="M31.1036 31.1755C31.7917 31.931 32.0828 33.0437 31.8719 34.042C31.4473 35.1625 30.8814 35.7547 29.905 36.0501L21.2514 38.3664C20.415 38.5907 19.4876 38.3053 18.8024 37.5484C18.1115 36.7829 17.8374 35.7398 18.0518 34.7301C18.2627 33.7317 18.9217 33.0288 19.756 32.7994L28.6624 30.3518C29.5727 30.099 30.5846 30.6067 31.1036 31.1755Z" fill="white"/>
<path d="M31.2097 37.8808C31.8382 38.5021 32.0569 39.5204 31.8822 40.3852C31.716 41.1983 31.2318 41.8217 30.5884 41.9942C27.8994 42.7001 22.5263 44.1159 22.5263 44.1159C21.8525 44.2935 21.1175 44.074 20.5651 43.4726C20.0077 42.8598 19.7812 42.0347 19.9587 41.2231C20.132 40.43 20.6688 39.864 21.3384 39.6851L29.551 37.4328C30.3598 37.2112 30.7482 37.4235 31.2097 37.8808Z" fill="white"/>
</svg>
