<svg width="40" height="37" viewBox="0 0 40 37" fill="none" xmlns="http://www.w3.org/2000/svg">
<path fill-rule="evenodd" clip-rule="evenodd" d="M18.3648 8.27381C23.9377 8.27381 28.4553 12.7914 28.4553 18.3648C28.4553 23.9382 23.9377 28.4558 18.3648 28.4558C12.7919 28.4558 8.27381 23.9382 8.27381 18.3648C8.27381 12.7914 12.7919 8.27381 18.3648 8.27381ZM32.7794 29.7326C29.2887 34.1547 24.0015 36.7296 18.3648 36.7296C8.22247 36.7296 0 28.5071 0 18.3648C0 8.22247 8.22247 0 18.3648 0C26.8305 0 34.203 5.79592 36.2058 13.993L38.4467 13.9997C39.6208 13.9987 40.3915 15.2802 39.7915 16.3225C38.5126 18.538 37.2363 20.7551 35.9579 22.97C35.3776 24.0051 33.8664 24.0389 33.2576 22.9882C31.9989 20.8074 30.7465 18.6319 29.4873 16.4517C28.767 15.4378 29.4816 13.993 30.7574 13.993H32.9775C31.0545 7.55295 25.1129 3.11577 18.3648 3.11577C9.94216 3.11577 3.11577 9.94216 3.11577 18.3648C3.11577 26.7864 9.94216 33.6138 18.3648 33.6138C23.0504 33.6138 27.4414 31.4891 30.3461 27.8107L32.7794 29.7326ZM13.2374 20.5844L15.7215 20.3386C15.9248 21.464 16.4097 22.217 17.2706 22.5531V19.0338C15.4233 18.5085 13.7134 17.5848 13.7134 15.3574C13.7134 13.2114 15.401 12.1711 17.2706 11.9009V10.4711H19.458V11.9056C21.4811 12.1919 23.038 13.3006 23.1214 15.6867L20.5668 15.7749C20.42 14.8896 20.0601 14.3809 19.458 14.133V16.9501C21.6528 17.5133 23.4917 18.3446 23.4917 21.0014C23.4917 23.4933 21.5802 24.5896 19.458 24.8432V26.2585H17.2706V24.8256C14.9928 24.5092 13.5485 23.1951 13.2374 20.5844ZM19.458 22.6272C20.2432 22.4198 20.9371 21.9328 20.9371 21.0164C20.9371 20.2536 20.2453 19.8423 19.458 19.582V22.6272ZM17.2706 14.0656C16.6799 14.2212 16.1447 14.5489 16.1447 15.1868C16.1447 15.7526 16.6628 16.1167 17.2706 16.3609V14.0656Z" fill="white"/>
</svg>
