<svg width="31" height="40" viewBox="0 0 31 40" fill="none" xmlns="http://www.w3.org/2000/svg">
<path fill-rule="evenodd" clip-rule="evenodd" d="M15.1394 0C8.9243 0 3.8247 5.0996 3.8247 11.3147V13.5458H3.50598C1.59363 13.5458 0 15.1394 0 17.0518V36.494C0 38.4064 1.59363 40 3.50598 40H26.7729C28.6853 40 30.2789 38.4064 30.2789 36.494V17.0518C30.2789 15.1394 28.6853 13.5458 26.7729 13.5458H26.4542V11.3147C26.4542 4.94024 21.3546 0 15.1394 0ZM15.1394 3.02789C19.761 3.02789 23.2669 6.53386 23.2669 11.3147V13.5458H7.01195V11.3147C7.01195 6.53386 10.5179 3.02789 15.1394 3.02789ZM15.1394 22.4701C17.5299 22.4701 19.4422 24.3825 19.4422 26.7729C19.4422 28.6853 18.1673 30.2789 16.4143 30.9163V35.3785H13.7052V30.9163C12.1116 30.2789 10.8367 28.6853 10.8367 26.7729C10.8367 24.3825 12.749 22.4701 15.1394 22.4701Z" fill="white"/>
</svg>
