<svg width="696" height="136" viewBox="0 0 696 136" fill="none" xmlns="http://www.w3.org/2000/svg">
<mask id="path-1-inside-1_511_678" fill="white">
<path fill-rule="evenodd" clip-rule="evenodd" d="M138.531 14C131.397 14 126.604 18.667 126.604 24.694C126.604 30.721 131.397 35.3954 138.531 35.3954C145.665 35.3954 150.459 30.7209 150.459 24.3298C150.459 18.4292 145.658 14 138.531 14ZM148.11 44.6105H128.937V110.744H148.11V44.6105ZM111.726 110.752V72.888C111.726 52.7262 100.415 43.63 84.6972 43.6226C74.739 43.6226 66.1332 47.6802 60.8494 54.4429C56.175 47.1897 48.3124 43.6226 39.0899 43.6226C30.6105 43.6226 23.2384 46.5729 18.3188 52.2283V44.6035H0V110.737H19.1734V77.5475C19.1734 65.7463 25.2003 60.2172 33.6797 60.2172C41.6686 60.2172 46.2167 65.1369 46.2167 75.8309V110.744H65.3901V77.5549C65.3901 65.7537 71.4097 60.2246 80.0154 60.2246C87.759 60.2246 92.5524 65.1443 92.5524 75.8383V110.752H111.726ZM207.98 110.743L193.473 90.4628L178.477 110.743H157.579L183.025 77.4279L158.441 44.6028H179.955L193.971 63.9025L208.351 44.6028H228.758L204.175 76.93L229.747 110.736H207.98V110.743ZM246.332 87.8843C239.688 87.8843 234.404 92.5587 234.404 99.6856C234.404 106.686 239.696 111.732 246.332 111.732C252.976 111.732 258.26 106.694 258.26 99.6856C258.26 92.5587 252.968 87.8843 246.332 87.8843ZM338.654 44.611V99.6861C338.654 124.27 325.381 135.58 301.526 135.58C288.989 135.58 276.816 132.504 269.072 126.484L276.697 112.714C282.353 117.262 291.575 120.212 300.054 120.212C313.58 120.212 319.48 114.066 319.48 102.138V99.3145C314.442 104.844 307.189 107.549 298.583 107.549C280.264 107.549 265.513 94.8853 265.513 75.5856C265.513 56.2859 280.264 43.6226 298.583 43.6226C307.806 43.6226 315.423 46.6992 320.461 53.0903V44.611H338.654ZM319.718 75.593C319.718 65.88 312.465 59.3625 302.388 59.3625C292.311 59.3625 284.931 65.88 284.931 75.593C284.931 85.3061 292.303 91.8161 302.388 91.8161C312.465 91.8161 319.718 85.2986 319.718 75.593ZM423.106 110.743V44.6102V44.6028H403.925V77.3015C403.925 89.4744 397.534 95.1298 388.683 95.1298C380.203 95.1298 375.284 90.2176 375.284 79.152V44.6102H356.11V81.9834C356.11 102.39 367.793 111.732 384.387 111.732C392.495 111.732 399.875 108.655 404.913 102.881V110.743H423.106ZM481.988 43.6294V61.3313C481.765 61.3136 481.548 61.2961 481.337 61.279C480.042 61.174 478.957 61.0861 477.685 61.0861C467.11 61.0861 460.11 66.8604 460.11 79.5237V110.751H440.937V44.6178H459.255V53.3424C463.915 46.9439 471.785 43.6294 481.988 43.6294ZM560.536 110.743V44.6102V44.6028H541.355V77.3015C541.355 89.4744 534.964 95.1298 526.114 95.1298C517.634 95.1298 512.714 90.2176 512.714 79.152V44.6102H493.541V81.9834C493.541 102.39 505.223 111.732 521.818 111.732C529.926 111.732 537.305 108.655 542.344 102.881V110.743H560.536Z"/>
</mask>
<path d="M128.937 44.6105V43.6105H127.937V44.6105H128.937ZM148.11 44.6105H149.11V43.6105H148.11V44.6105ZM128.937 110.744H127.937V111.744H128.937V110.744ZM148.11 110.744V111.744H149.11V110.744H148.11ZM111.726 110.752V111.752H112.726V110.752H111.726ZM84.6972 43.6226L84.6977 42.6226H84.6972V43.6226ZM60.8494 54.4429L60.0089 54.9846L60.7711 56.1673L61.6374 55.0586L60.8494 54.4429ZM18.3188 52.2283H17.3188V54.9015L19.0732 52.8846L18.3188 52.2283ZM18.3188 44.6035H19.3188V43.6035H18.3188V44.6035ZM0 44.6035V43.6035H-1V44.6035H0ZM0 110.737H-1V111.737H0V110.737ZM19.1734 110.737V111.737H20.1734V110.737H19.1734ZM46.2167 110.744H45.2167V111.744H46.2167V110.744ZM65.3901 110.744V111.744H66.3901V110.744H65.3901ZM92.5524 110.752H91.5524V111.752H92.5524V110.752ZM193.473 90.4628L194.287 89.881L193.487 88.7627L192.669 89.8682L193.473 90.4628ZM207.98 110.743L207.166 111.325L208.98 113.86V110.743H207.98ZM178.477 110.743V111.743H178.981L179.281 111.338L178.477 110.743ZM157.579 110.743L156.784 110.136L155.557 111.743H157.579V110.743ZM183.025 77.4279L183.819 78.0349L184.278 77.4338L183.825 76.8284L183.025 77.4279ZM158.441 44.6028V43.6028H156.443L157.641 45.2022L158.441 44.6028ZM179.955 44.6028L180.765 44.0152L180.465 43.6028H179.955V44.6028ZM193.971 63.9025L193.162 64.4901L193.961 65.59L194.773 64.4999L193.971 63.9025ZM208.351 44.6028V43.6028H207.849L207.549 44.0053L208.351 44.6028ZM228.758 44.6028L229.554 45.2081L230.775 43.6028H228.758V44.6028ZM204.175 76.93L203.379 76.3247L202.92 76.9284L203.377 77.5332L204.175 76.93ZM229.747 110.736V111.736H231.757L230.544 110.133L229.747 110.736ZM207.98 110.736V109.736H206.98V110.736H207.98ZM338.654 44.611H339.654V43.611H338.654V44.611ZM269.072 126.484L268.198 126L267.783 126.748L268.459 127.274L269.072 126.484ZM276.697 112.714L277.324 111.934L276.398 111.19L275.822 112.229L276.697 112.714ZM319.48 99.3145H320.48V96.7325L318.741 98.6409L319.48 99.3145ZM320.461 53.0903L319.676 53.7094L321.461 55.974V53.0903H320.461ZM320.461 44.611V43.611H319.461V44.611H320.461ZM423.106 110.743V111.743H424.106V110.743H423.106ZM423.106 44.6028H424.106V43.6028H423.106V44.6028ZM403.925 44.6028V43.6028H402.925V44.6028H403.925ZM375.284 44.6102H376.284V43.6102H375.284V44.6102ZM356.11 44.6102V43.6102H355.11V44.6102H356.11ZM404.913 102.881H405.913V100.214L404.16 102.223L404.913 102.881ZM404.913 110.743H403.913V111.743H404.913V110.743ZM481.988 61.3313L481.909 62.3282L482.988 62.4135V61.3313H481.988ZM481.988 43.6294H482.988V42.6294H481.988V43.6294ZM481.337 61.279L481.418 60.2823L481.337 61.279ZM460.11 110.751V111.751H461.11V110.751H460.11ZM440.937 110.751H439.937V111.751H440.937V110.751ZM440.937 44.6178V43.6178H439.937V44.6178H440.937ZM459.255 44.6178H460.255V43.6178H459.255V44.6178ZM459.255 53.3424H458.255V56.4144L460.064 53.9311L459.255 53.3424ZM560.536 110.743V111.743H561.536V110.743H560.536ZM560.536 44.6028H561.536V43.6028H560.536V44.6028ZM541.355 44.6028V43.6028H540.355V44.6028H541.355ZM512.714 44.6102H513.714V43.6102H512.714V44.6102ZM493.541 44.6102V43.6102H492.541V44.6102H493.541ZM542.344 102.881H543.344V100.214L541.59 102.223L542.344 102.881ZM542.344 110.743H541.344V111.743H542.344V110.743ZM127.604 24.694C127.604 19.2975 131.868 15 138.531 15V13C130.926 13 125.604 18.0366 125.604 24.694H127.604ZM138.531 34.3954C131.869 34.3954 127.604 30.0914 127.604 24.694H125.604C125.604 31.3506 130.925 36.3954 138.531 36.3954V34.3954ZM149.459 24.3298C149.459 27.2653 148.363 29.763 146.485 31.5311C144.603 33.3022 141.877 34.3954 138.531 34.3954V36.3954C142.319 36.3954 145.557 35.1513 147.856 32.9874C150.158 30.8205 151.459 27.7855 151.459 24.3298H149.459ZM138.531 15C145.227 15 149.459 19.0955 149.459 24.3298H151.459C151.459 17.7629 146.089 13 138.531 13V15ZM128.937 45.6105H148.11V43.6105H128.937V45.6105ZM129.937 110.744V44.6105H127.937V110.744H129.937ZM148.11 109.744H128.937V111.744H148.11V109.744ZM147.11 44.6105V110.744H149.11V44.6105H147.11ZM110.726 72.888V110.752H112.726V72.888H110.726ZM84.6968 44.6226C92.3667 44.6262 98.8411 46.8444 103.398 51.4043C107.953 55.962 110.726 62.9921 110.726 72.888H112.726C112.726 62.6221 109.843 55.0231 104.813 49.9905C99.7853 44.9599 92.7455 42.6264 84.6977 42.6226L84.6968 44.6226ZM61.6374 55.0586C66.7104 48.5657 75.0104 44.6226 84.6972 44.6226V42.6226C74.4675 42.6226 65.5561 46.7947 60.0614 53.8272L61.6374 55.0586ZM39.0899 44.6226C48.047 44.6226 55.5555 48.0745 60.0089 54.9846L61.69 53.9012C56.7944 46.3049 48.5779 42.6226 39.0899 42.6226V44.6226ZM19.0732 52.8846C23.7682 47.4876 30.8422 44.6226 39.0899 44.6226V42.6226C30.3788 42.6226 22.7087 45.6582 17.5643 51.572L19.0732 52.8846ZM17.3188 44.6035V52.2283H19.3188V44.6035H17.3188ZM0 45.6035H18.3188V43.6035H0V45.6035ZM1 110.737V44.6035H-1V110.737H1ZM19.1734 109.737H0V111.737H19.1734V109.737ZM18.1734 77.5475V110.737H20.1734V77.5475H18.1734ZM33.6797 59.2172C29.2158 59.2172 25.2956 60.6795 22.5029 63.7886C19.7219 66.8847 18.1734 71.4859 18.1734 77.5475H20.1734C20.1734 71.8079 21.6384 67.7439 23.9907 65.1251C26.3313 62.5194 29.6643 61.2172 33.6797 61.2172V59.2172ZM47.2167 75.8309C47.2167 70.3649 46.0577 66.1924 43.7128 63.3742C41.3399 60.5224 37.8884 59.2172 33.6797 59.2172V61.2172C37.46 61.2172 40.277 62.3719 42.1754 64.6534C44.1017 66.9685 45.2167 70.6028 45.2167 75.8309H47.2167ZM47.2167 110.744V75.8309H45.2167V110.744H47.2167ZM65.3901 109.744H46.2167V111.744H65.3901V109.744ZM64.3901 77.5549V110.744H66.3901V77.5549H64.3901ZM80.0154 59.2246C75.4923 59.2246 71.5419 60.6843 68.7335 63.7941C65.9365 66.891 64.3901 71.4937 64.3901 77.5549H66.3901C66.3901 71.8149 67.8534 67.7525 70.2177 65.1346C72.5704 62.5295 75.9328 61.2246 80.0154 61.2246V59.2246ZM93.5524 75.8383C93.5524 70.3606 92.327 66.1902 89.952 63.3762C87.5532 60.5342 84.109 59.2246 80.0154 59.2246V61.2246C83.6654 61.2246 86.4897 62.3749 88.4236 64.6662C90.3811 66.9856 91.5524 70.6219 91.5524 75.8383H93.5524ZM93.5524 110.752V75.8383H91.5524V110.752H93.5524ZM111.726 109.752H92.5524V111.752H111.726V109.752ZM192.66 91.0446L207.166 111.325L208.793 110.162L194.287 89.881L192.66 91.0446ZM179.281 111.338L194.277 91.0574L192.669 89.8682L177.673 110.149L179.281 111.338ZM157.579 111.743H178.477V109.743H157.579V111.743ZM182.23 76.8209L156.784 110.136L158.374 111.35L183.819 78.0349L182.23 76.8209ZM157.641 45.2022L182.224 78.0273L183.825 76.8284L159.242 44.0033L157.641 45.2022ZM179.955 43.6028H158.441V45.6028H179.955V43.6028ZM194.78 63.3148L180.765 44.0152L179.146 45.1904L193.162 64.4901L194.78 63.3148ZM207.549 44.0053L193.169 63.305L194.773 64.4999L209.153 45.2003L207.549 44.0053ZM228.758 43.6028H208.351V45.6028H228.758V43.6028ZM204.971 77.5353L229.554 45.2081L227.962 43.9975L203.379 76.3247L204.971 77.5353ZM230.544 110.133L204.972 76.3267L203.377 77.5332L228.949 111.339L230.544 110.133ZM207.98 111.736H229.747V109.736H207.98V111.736ZM208.98 110.743V110.736H206.98V110.743H208.98ZM235.404 99.6856C235.404 93.1517 240.199 88.8843 246.332 88.8843V86.8843C239.177 86.8843 233.404 91.9657 233.404 99.6856H235.404ZM246.332 110.732C240.241 110.732 235.404 106.127 235.404 99.6856H233.404C233.404 107.245 239.15 112.732 246.332 112.732V110.732ZM257.26 99.6856C257.26 106.134 252.43 110.732 246.332 110.732V112.732C253.521 112.732 259.26 107.253 259.26 99.6856H257.26ZM246.332 88.8843C252.458 88.8843 257.26 93.1521 257.26 99.6856H259.26C259.26 91.9653 253.479 86.8843 246.332 86.8843V88.8843ZM339.654 99.6861V44.611H337.654V99.6861H339.654ZM301.526 136.58C313.595 136.58 323.165 133.72 329.719 127.582C336.285 121.432 339.654 112.152 339.654 99.6861H337.654C337.654 111.803 334.386 120.471 328.352 126.122C322.306 131.785 313.312 134.58 301.526 134.58V136.58ZM268.459 127.274C276.442 133.48 288.865 136.58 301.526 136.58V134.58C289.112 134.58 277.19 131.528 269.686 125.695L268.459 127.274ZM275.822 112.229L268.198 126L269.947 126.969L277.572 113.198L275.822 112.229ZM300.054 119.212C291.761 119.212 282.772 116.315 277.324 111.934L276.07 113.493C281.933 118.208 291.389 121.212 300.054 121.212V119.212ZM318.48 102.138C318.48 107.951 317.044 112.157 314.148 114.925C311.244 117.703 306.687 119.212 300.054 119.212V121.212C306.948 121.212 312.104 119.648 315.531 116.371C318.967 113.085 320.48 108.254 320.48 102.138H318.48ZM318.48 99.3145V102.138H320.48V99.3145H318.48ZM298.583 108.549C307.401 108.549 314.949 105.771 320.22 99.9881L318.741 98.6409C313.934 103.916 306.977 106.549 298.583 106.549V108.549ZM264.513 75.5856C264.513 95.5016 279.778 108.549 298.583 108.549V106.549C280.75 106.549 266.513 94.269 266.513 75.5856H264.513ZM298.583 42.6226C279.778 42.6226 264.513 55.6696 264.513 75.5856H266.513C266.513 56.9022 280.75 44.6226 298.583 44.6226V42.6226ZM321.247 52.4712C315.975 45.785 308.035 42.6226 298.583 42.6226V44.6226C307.576 44.6226 314.87 47.6135 319.676 53.7094L321.247 52.4712ZM319.461 44.611V53.0903H321.461V44.611H319.461ZM338.654 43.611H320.461V45.611H338.654V43.611ZM302.388 60.3625C307.211 60.3625 311.29 61.92 314.153 64.5694C317.009 67.2125 318.718 70.9984 318.718 75.593H320.718C320.718 70.4746 318.801 66.1453 315.511 63.1014C312.229 60.0639 307.642 58.3625 302.388 58.3625V60.3625ZM285.931 75.593C285.931 71.0039 287.668 67.2183 290.556 64.5728C293.452 61.9205 297.564 60.3625 302.388 60.3625V58.3625C297.134 58.3625 292.518 60.0634 289.205 63.098C285.885 66.1395 283.931 70.4691 283.931 75.593H285.931ZM302.388 90.8161C297.56 90.8161 293.448 89.2597 290.553 86.6094C287.666 83.966 285.931 80.1824 285.931 75.593H283.931C283.931 80.7167 285.882 85.0446 289.203 88.0845C292.515 91.1174 297.131 92.8161 302.388 92.8161V90.8161ZM318.718 75.593C318.718 80.1837 317.009 83.9678 314.153 86.6101C311.29 89.2586 307.211 90.8161 302.388 90.8161V92.8161C307.642 92.8161 312.229 91.1148 315.511 88.0782C318.801 85.0354 320.718 80.7079 320.718 75.593H318.718ZM422.106 44.6102V110.743H424.106V44.6102H422.106ZM422.106 44.6028V44.6102H424.106V44.6028H422.106ZM403.925 45.6028H423.106V43.6028H403.925V45.6028ZM404.925 77.3015V44.6028H402.925V77.3015H404.925ZM388.683 96.1298C393.326 96.1298 397.427 94.6406 400.358 91.458C403.282 88.2847 404.925 83.5557 404.925 77.3015H402.925C402.925 83.2202 401.372 87.4054 398.887 90.103C396.411 92.7913 392.891 94.1298 388.683 94.1298V96.1298ZM374.284 79.152C374.284 84.8123 375.539 89.0851 378.052 91.9498C380.585 94.8389 384.248 96.1298 388.683 96.1298V94.1298C384.638 94.1298 381.602 92.9646 379.555 90.6312C377.488 88.2734 376.284 84.5572 376.284 79.152H374.284ZM374.284 44.6102V79.152H376.284V44.6102H374.284ZM356.11 45.6102H375.284V43.6102H356.11V45.6102ZM357.11 81.9834V44.6102H355.11V81.9834H357.11ZM384.387 110.732C376.272 110.732 369.483 108.45 364.725 103.795C359.972 99.1459 357.11 91.9964 357.11 81.9834H355.11C355.11 92.3774 358.09 100.102 363.327 105.225C368.558 110.343 375.908 112.732 384.387 112.732V110.732ZM404.16 102.223C399.332 107.756 392.24 110.732 384.387 110.732V112.732C392.75 112.732 400.417 109.555 405.667 103.538L404.16 102.223ZM405.913 110.743V102.881H403.913V110.743H405.913ZM423.106 109.743H404.913V111.743H423.106V109.743ZM482.988 61.3313V43.6294H480.988V61.3313H482.988ZM481.256 62.2757C481.467 62.2928 481.685 62.3104 481.909 62.3282L482.067 60.3344C481.845 60.3168 481.629 60.2994 481.418 60.2823L481.256 62.2757ZM477.685 62.0861C478.911 62.0861 479.957 62.1704 481.256 62.2757L481.418 60.2823C480.127 60.1776 479.003 60.0861 477.685 60.0861V62.0861ZM461.11 79.5237C461.11 73.3729 462.807 69.0537 465.634 66.2685C468.464 63.4798 472.573 62.0861 477.685 62.0861V60.0861C472.223 60.0861 467.544 61.5795 464.23 64.8438C460.913 68.1115 459.11 73.0112 459.11 79.5237H461.11ZM461.11 110.751V79.5237H459.11V110.751H461.11ZM440.937 111.751H460.11V109.751H440.937V111.751ZM439.937 44.6178V110.751H441.937V44.6178H439.937ZM459.255 43.6178H440.937V45.6178H459.255V43.6178ZM460.255 53.3424V44.6178H458.255V53.3424H460.255ZM481.988 42.6294C471.574 42.6294 463.351 46.0198 458.447 52.7537L460.064 53.9311C464.479 47.8679 471.996 44.6294 481.988 44.6294V42.6294ZM559.536 44.6102V110.743H561.536V44.6102H559.536ZM559.536 44.6028V44.6102H561.536V44.6028H559.536ZM541.355 45.6028H560.536V43.6028H541.355V45.6028ZM542.355 77.3015V44.6028H540.355V77.3015H542.355ZM526.114 96.1298C530.756 96.1298 534.857 94.6406 537.789 91.458C540.712 88.2847 542.355 83.5557 542.355 77.3015H540.355C540.355 83.2202 538.803 87.4054 536.318 90.103C533.842 92.7913 530.322 94.1298 526.114 94.1298V96.1298ZM511.714 79.152C511.714 84.8123 512.97 89.0851 515.482 91.9498C518.016 94.8389 521.679 96.1298 526.114 96.1298V94.1298C522.069 94.1298 519.032 92.9646 516.986 90.6312C514.919 88.2734 513.714 84.5572 513.714 79.152H511.714ZM511.714 44.6102V79.152H513.714V44.6102H511.714ZM493.541 45.6102H512.714V43.6102H493.541V45.6102ZM494.541 81.9834V44.6102H492.541V81.9834H494.541ZM521.818 110.732C513.703 110.732 506.914 108.45 502.156 103.795C497.403 99.1459 494.541 91.9964 494.541 81.9834H492.541C492.541 92.3774 495.52 100.102 500.757 105.225C505.989 110.343 513.339 112.732 521.818 112.732V110.732ZM541.59 102.223C536.763 107.756 529.671 110.732 521.818 110.732V112.732C530.181 112.732 537.848 109.555 543.097 103.538L541.59 102.223ZM543.344 110.743V102.881H541.344V110.743H543.344ZM560.536 109.743H542.344V111.743H560.536V109.743Z" fill="url(#paint0_linear_511_678)" mask="url(#path-1-inside-1_511_678)"/>
<path fill-rule="evenodd" clip-rule="evenodd" d="M138.531 6.0188C131.397 6.0188 126.604 10.6858 126.604 16.7128C126.604 22.7398 131.397 27.4142 138.531 27.4142C145.665 27.4142 150.459 22.7397 150.459 16.3486C150.459 10.448 145.658 6.0188 138.531 6.0188ZM148.11 36.6293H128.937V102.763H148.11V36.6293ZM111.726 102.77V64.9068C111.726 44.745 100.415 35.6488 84.6972 35.6414C74.739 35.6414 66.1332 39.699 60.8494 46.4617C56.175 39.2085 48.3124 35.6414 39.0899 35.6414C30.6105 35.6414 23.2384 38.5917 18.3188 44.2471V36.6223H0V102.756H19.1734V69.5663C19.1734 57.7651 25.2003 52.236 33.6797 52.236C41.6686 52.236 46.2167 57.1557 46.2167 67.8497V102.763H65.3901V69.5737C65.3901 57.7725 71.4097 52.2434 80.0154 52.2434C87.759 52.2434 92.5524 57.1631 92.5524 67.8571V102.77H111.726ZM207.98 102.762L193.473 82.4816L178.477 102.762H157.579L183.025 69.4467L158.441 36.6216H179.955L193.971 55.9213L208.351 36.6216H228.758L204.175 68.9488L229.747 102.755H207.98V102.762ZM246.332 79.9031C239.688 79.9031 234.404 84.5775 234.404 91.7044C234.404 98.7049 239.696 103.751 246.332 103.751C252.976 103.751 258.26 98.7123 258.26 91.7044C258.26 84.5775 252.968 79.9031 246.332 79.9031ZM338.654 36.6298V91.7049C338.654 116.288 325.381 127.599 301.526 127.599C288.989 127.599 276.816 124.523 269.072 118.503L276.697 104.732C282.353 109.28 291.575 112.231 300.054 112.231C313.58 112.231 319.48 106.085 319.48 94.1573V91.3333C314.442 96.8624 307.189 99.5674 298.583 99.5674C280.264 99.5674 265.513 86.9041 265.513 67.6044C265.513 48.3047 280.264 35.6414 298.583 35.6414C307.806 35.6414 315.423 38.718 320.461 45.1091V36.6298H338.654ZM319.718 67.6118C319.718 57.8988 312.465 51.3813 302.388 51.3813C292.311 51.3813 284.931 57.8988 284.931 67.6118C284.931 77.3249 292.303 83.8349 302.388 83.8349C312.465 83.8349 319.718 77.3174 319.718 67.6118ZM423.106 102.762V36.629V36.6216H403.925V69.3203C403.925 81.4932 397.534 87.1486 388.683 87.1486C380.203 87.1486 375.284 82.2364 375.284 71.1708V36.629H356.11V74.0022C356.11 94.4092 367.793 103.751 384.387 103.751C392.495 103.751 399.875 100.674 404.913 94.8997V102.762H423.106ZM481.988 35.6482V53.3501C481.881 53.3416 481.775 53.3331 481.67 53.3247L481.337 53.2978C480.042 53.1928 478.957 53.1049 477.685 53.1049C467.11 53.1049 460.11 58.8792 460.11 71.5425V102.77H440.937V36.6366H459.255V45.3612C463.915 38.9627 471.785 35.6482 481.988 35.6482ZM560.536 102.762V36.629V36.6216H541.355V69.3203C541.355 81.4932 534.964 87.1486 526.114 87.1486C517.634 87.1486 512.714 82.2364 512.714 71.1708V36.629H493.541V74.0022C493.541 94.4092 505.223 103.751 521.818 103.751C529.926 103.751 537.305 100.674 542.344 94.8997V102.762H560.536Z" fill="url(#paint1_linear_511_678)"/>
<path d="M642.699 106.601C672.136 106.601 696 82.7377 696 53.3006C696 23.8635 672.136 0 642.699 0C613.262 0 589.398 23.8635 589.398 53.3006C589.398 82.7377 613.262 106.601 642.699 106.601Z" fill="url(#paint2_linear_511_678)"/>
<path d="M678.115 61.0327C677.917 60.3962 677.672 59.7677 677.388 59.1549C677.36 59.0877 677.324 59.0205 677.293 58.9533C677.206 58.7715 677.115 58.5896 677.02 58.4078C676.838 58.0599 676.644 57.716 676.439 57.3799C676.261 57.0914 676.075 56.8028 675.877 56.5142C675.913 56.4114 675.949 56.3086 675.984 56.2058C676.083 55.8975 676.178 55.5852 676.257 55.2729C676.494 54.3676 676.64 53.4426 676.692 52.5017C676.708 52.229 676.715 51.9562 676.715 51.6795C676.715 50.8058 676.636 49.948 676.482 49.102C676.459 48.9676 676.431 48.8332 676.403 48.6988C676.538 48.4576 676.668 48.2165 676.791 47.9714C676.921 47.7145 677.044 47.4535 677.158 47.1926C677.53 46.3585 677.822 45.5046 678.036 44.6349C678.253 43.7494 678.388 42.8441 678.435 41.927C678.435 41.8796 678.439 41.8321 678.443 41.7847C678.451 41.591 678.455 41.4012 678.455 41.2075C678.455 28.7906 662.326 18.7258 642.426 18.7258C622.525 18.7258 606.396 28.7906 606.396 41.2075C606.396 42.2156 606.503 43.2118 606.713 44.1882C606.946 45.2951 607.31 46.3743 607.792 47.4219C607.824 47.4891 607.855 47.5563 607.887 47.6235C607.974 47.8054 608.065 47.9912 608.16 48.1691C608.341 48.5169 608.535 48.8609 608.741 49.1969C608.808 49.3036 608.871 49.4103 608.942 49.5131C608.836 49.8808 608.745 50.2524 608.658 50.624C608.634 50.7188 608.614 50.8177 608.594 50.9126C608.413 51.7506 608.282 52.6045 608.199 53.4663C608.132 54.166 608.096 54.8736 608.096 55.5891C608.096 56.6565 608.171 57.7081 608.322 58.7438C608.029 59.3289 607.78 59.9258 607.567 60.5306C607.405 60.9931 607.266 61.4596 607.148 61.934C606.93 62.8195 606.796 63.7248 606.748 64.6459C606.748 64.6933 606.744 64.7407 606.74 64.7882C606.733 64.9819 606.729 65.1756 606.729 65.3693C606.729 72.3585 611.844 78.6085 619.869 82.7316H619.873C626.095 85.9297 634.065 87.847 642.758 87.847C662.658 87.847 678.787 77.7823 678.787 65.3654C678.783 63.8829 678.554 62.4321 678.115 61.0327ZM627.111 72.5048L627.119 72.6313L627.265 75.2206C631.519 76.0666 636.101 76.5093 640.825 76.5093C650.696 76.5093 659.942 74.5762 666.86 71.0698C668.718 70.1289 670.339 69.105 671.711 68.0179C670.157 70.6152 667.706 73.0226 664.453 75.0901C658.191 79.071 649.818 81.265 640.88 81.265C636.192 81.265 631.657 80.6602 627.502 79.5098L627.558 80.5337L627.724 83.4551C624.328 82.4312 621.205 81.0515 618.469 79.3438C613.137 76.0191 609.895 71.8209 609.148 67.3577C609.089 67.002 609.045 66.6462 609.017 66.2904C609.01 66.156 609.002 66.0176 608.994 65.8832C608.986 65.7093 608.982 65.5353 608.982 65.3614C608.982 64.8001 609.021 64.2427 609.1 63.6892C609.144 63.373 609.199 63.0606 609.266 62.7523C609.27 62.7365 609.274 62.7167 609.278 62.697C609.658 61.009 610.397 59.3605 611.476 57.7911C611.785 57.3404 612.121 56.8977 612.488 56.4589C612.559 56.3719 612.635 56.2849 612.71 56.194C613.077 55.7671 613.473 55.348 613.896 54.9329C615.88 56.534 618.201 57.9611 620.794 59.1786C622.569 60.0088 624.478 60.7441 626.49 61.3647L626.53 62.0803L626.581 63.0172L626.601 63.3611L626.7 65.1044C632.31 66.5711 638.658 67.3459 645.276 67.3459C655.582 67.3459 665.235 65.4602 672.458 62.0328C672.576 61.9775 672.695 61.9182 672.81 61.8628C672.165 62.6535 671.45 63.4164 670.663 64.1478C669.291 65.1242 667.655 66.0453 665.769 66.8913C658.974 69.9392 649.889 71.6193 640.192 71.6193C635.599 71.6193 631.143 71.2437 627.004 70.5203L627.111 72.5048ZM618.137 55.182C617.232 54.6167 616.386 54.0276 615.607 53.4149C616.481 52.7073 617.438 52.0313 618.469 51.3869C624.921 47.3626 633.547 45.1449 642.754 45.1449C651.961 45.1449 660.587 47.3626 667.038 51.3869C667.943 51.9522 668.789 52.5413 669.568 53.154C668.694 53.8616 667.738 54.5376 666.706 55.182C660.254 59.2063 651.629 61.424 642.422 61.424C633.215 61.424 624.589 59.2063 618.137 55.182ZM675.379 45.5876C674.972 46.6787 674.407 47.7421 673.699 48.7739C673.391 49.2245 673.051 49.6713 672.687 50.1101C672.616 50.197 672.541 50.284 672.466 50.371C672.098 50.7979 671.703 51.217 671.28 51.632C669.299 50.035 666.979 48.6039 664.389 47.3903C664.389 47.3903 664.386 47.3863 664.382 47.3863C662.591 46.2557 660.63 45.2714 658.535 44.4373L658.495 43.5201L658.479 43.1802L658.404 41.4447C652.815 39.9939 646.49 39.2191 639.9 39.2191C629.594 39.2191 619.94 41.1087 612.718 44.5321C612.303 44.7298 611.899 44.9314 611.508 45.133C611.5 45.137 611.496 45.1409 611.492 45.1409C611.496 45.133 611.504 45.1291 611.508 45.1212C613.192 43.1209 615.86 41.2668 619.406 39.6737C626.202 36.6219 635.286 34.9417 644.987 34.9417C649.581 34.9417 654.032 35.3173 658.175 36.0407L658.088 33.9416L658.001 31.9571L657.973 31.3641C656.44 31.0558 654.858 30.8028 653.249 30.6012C650.375 30.2454 647.395 30.0596 644.351 30.0596C635.251 30.0596 626.684 31.7002 619.98 34.7046H619.976C619.406 34.9576 618.853 35.2224 618.311 35.4991C616.453 36.44 614.833 37.4639 613.465 38.547C614.129 37.4362 614.959 36.3609 615.943 35.3331C617.26 33.9534 618.857 32.6608 620.719 31.4788C626.981 27.4979 635.353 25.3039 644.292 25.3039C649.027 25.3039 653.601 25.9206 657.788 27.0908L657.622 23.1653C660.946 24.1812 664.014 25.5451 666.702 27.2212C672.035 30.5498 675.277 34.7441 676.028 39.2072C676.087 39.563 676.13 39.9148 676.158 40.2746C676.166 40.4129 676.174 40.5474 676.182 40.6857C676.19 40.8597 676.194 41.0336 676.194 41.2036C676.194 41.7649 676.154 42.3223 676.075 42.8758C676.008 43.362 675.909 43.8443 675.783 44.3187C675.672 44.7417 675.537 45.1646 675.379 45.5876Z" fill="white"/>
<defs>
<linearGradient id="paint0_linear_511_678" x1="0" y1="14" x2="561" y2="115.5" gradientUnits="userSpaceOnUse">
<stop stop-color="#02FCFF"/>
<stop offset="0.5" stop-color="#4B65F1"/>
<stop offset="1" stop-color="#FA03FF"/>
</linearGradient>
<linearGradient id="paint1_linear_511_678" x1="-3.52482e-06" y1="-58" x2="595.5" y2="163.5" gradientUnits="userSpaceOnUse">
<stop stop-color="#02FCFF"/>
<stop offset="0.5" stop-color="#4B65F1"/>
<stop offset="1" stop-color="#FA03FF"/>
</linearGradient>
<linearGradient id="paint2_linear_511_678" x1="642.701" y1="-1.17658" x2="642.701" y2="106.44" gradientUnits="userSpaceOnUse">
<stop stop-color="#02FCFF"/>
<stop offset="0.5" stop-color="#4B65F1"/>
<stop offset="1" stop-color="#FA03FF"/>
</linearGradient>
</defs>
</svg>
