<svg width="38" height="24" viewBox="0 0 38 24" fill="none" xmlns="http://www.w3.org/2000/svg">
<path d="M9.336 23.448C6.712 23.448 4.61067 22.712 3.032 21.24C1.45333 19.768 0.664 17.5493 0.664 14.584V9.016C0.664 6.11467 1.45333 3.91733 3.032 2.424C4.61067 0.909332 6.712 0.151999 9.336 0.151999C11.9813 0.151999 14.0827 0.909332 15.64 2.424C17.2187 3.91733 18.008 6.11467 18.008 9.016V14.584C18.008 17.5493 17.2187 19.768 15.64 21.24C14.0827 22.712 11.9813 23.448 9.336 23.448ZM9.336 20.12C11.0213 20.12 12.2587 19.6507 13.048 18.712C13.8587 17.7733 14.264 16.44 14.264 14.712V8.856C14.264 7.10667 13.8267 5.77333 12.952 4.856C12.0773 3.93867 10.872 3.48 9.336 3.48C7.75733 3.48 6.54133 3.94933 5.688 4.888C4.83467 5.82667 4.408 7.14933 4.408 8.856V14.712C4.408 16.4827 4.81333 17.8267 5.624 18.744C6.456 19.6613 7.69333 20.12 9.336 20.12ZM29.4155 23.448C27.7515 23.448 26.2688 23.1493 24.9675 22.552C23.6875 21.9547 22.6848 21.1013 21.9595 19.992C21.2342 18.8613 20.8715 17.5173 20.8715 15.96V15.384H24.5835V15.864C24.5835 17.1653 25.0208 18.2 25.8955 18.968C26.7915 19.736 27.9648 20.12 29.4155 20.12C30.8662 20.12 31.9968 19.768 32.8075 19.064C33.6182 18.3387 34.0235 17.432 34.0235 16.344V16.056C34.0235 15.288 33.8315 14.6693 33.4475 14.2C33.0848 13.7307 32.5835 13.3893 31.9435 13.176C31.3248 12.9413 30.6208 12.824 29.8315 12.824H25.5435V8.664L33.1275 4.408V3.928H21.4155V0.599998H37.2235V5.592L30.0555 9.624V10.104H31.3675C32.4342 10.104 33.4475 10.3173 34.4075 10.744C35.3888 11.1493 36.1888 11.7787 36.8075 12.632C37.4262 13.4853 37.7355 14.5947 37.7355 15.96V16.312C37.7355 17.7627 37.3835 19.0213 36.6795 20.088C35.9968 21.1547 35.0262 21.9867 33.7675 22.584C32.5302 23.16 31.0795 23.448 29.4155 23.448Z" fill="url(#paint0_linear_517_19137)"/>
<defs>
<linearGradient id="paint0_linear_517_19137" x1="-1" y1="-4" x2="34.0581" y2="33.5479" gradientUnits="userSpaceOnUse">
<stop stop-color="#02FCFF"/>
<stop offset="0.5" stop-color="#4B65F1"/>
<stop offset="1" stop-color="#FA03FF"/>
</linearGradient>
</defs>
</svg>
