<svg width="38" height="24" viewBox="0 0 38 24" fill="none" xmlns="http://www.w3.org/2000/svg">
<path d="M9.336 23.448C6.712 23.448 4.61067 22.712 3.032 21.24C1.45333 19.768 0.664 17.5493 0.664 14.584V9.016C0.664 6.11467 1.45333 3.91733 3.032 2.424C4.61067 0.909332 6.712 0.151999 9.336 0.151999C11.9813 0.151999 14.0827 0.909332 15.64 2.424C17.2187 3.91733 18.008 6.11467 18.008 9.016V14.584C18.008 17.5493 17.2187 19.768 15.64 21.24C14.0827 22.712 11.9813 23.448 9.336 23.448ZM9.336 20.12C11.0213 20.12 12.2587 19.6507 13.048 18.712C13.8587 17.7733 14.264 16.44 14.264 14.712V8.856C14.264 7.10667 13.8267 5.77333 12.952 4.856C12.0773 3.93867 10.872 3.48 9.336 3.48C7.75733 3.48 6.54133 3.94933 5.688 4.888C4.83467 5.82667 4.408 7.14933 4.408 8.856V14.712C4.408 16.4827 4.81333 17.8267 5.624 18.744C6.456 19.6613 7.69333 20.12 9.336 20.12ZM29.3835 23.448C27.6555 23.448 26.1622 23.1387 24.9035 22.52C23.6662 21.9013 22.7062 21.0267 22.0235 19.896C21.3408 18.7653 20.9995 17.4533 20.9995 15.96V15.64H24.7755V15.928C24.7755 17.144 25.1595 18.1467 25.9275 18.936C26.7168 19.7253 27.8475 20.12 29.3195 20.12C30.7915 20.12 31.9328 19.7147 32.7435 18.904C33.5542 18.0933 33.9595 17.0267 33.9595 15.704V15.416C33.9595 14.1147 33.5542 13.08 32.7435 12.312C31.9542 11.544 30.9515 11.16 29.7355 11.16C29.0528 11.16 28.4875 11.256 28.0395 11.448C27.6128 11.64 27.2608 11.8853 26.9835 12.184C26.7062 12.4613 26.4822 12.7493 26.3115 13.048H21.7035V0.599998H36.8395V3.992H25.4155V10.008H25.9595C26.1942 9.688 26.4928 9.38933 26.8555 9.112C27.2395 8.81333 27.7302 8.568 28.3275 8.376C28.9462 8.16267 29.6822 8.056 30.5355 8.056C31.8582 8.056 33.0528 8.344 34.1195 8.92C35.2075 9.47467 36.0715 10.296 36.7115 11.384C37.3515 12.472 37.6715 13.8053 37.6715 15.384V15.736C37.6715 17.2933 37.3408 18.648 36.6795 19.8C36.0182 20.952 35.0688 21.848 33.8315 22.488C32.5942 23.128 31.1115 23.448 29.3835 23.448Z" fill="url(#paint0_linear_517_19139)"/>
<defs>
<linearGradient id="paint0_linear_517_19139" x1="-1" y1="-4" x2="34.1068" y2="32.683" gradientUnits="userSpaceOnUse">
<stop stop-color="#02FCFF"/>
<stop offset="0.5" stop-color="#4B65F1"/>
<stop offset="1" stop-color="#FA03FF"/>
</linearGradient>
</defs>
</svg>
