<svg width="32" height="24" viewBox="0 0 32 24" fill="none" xmlns="http://www.w3.org/2000/svg">
<path d="M9.336 23.448C6.712 23.448 4.61067 22.712 3.032 21.24C1.45333 19.768 0.664 17.5493 0.664 14.584V9.016C0.664 6.11467 1.45333 3.91733 3.032 2.424C4.61067 0.909332 6.712 0.151999 9.336 0.151999C11.9813 0.151999 14.0827 0.909332 15.64 2.424C17.2187 3.91733 18.008 6.11467 18.008 9.016V14.584C18.008 17.5493 17.2187 19.768 15.64 21.24C14.0827 22.712 11.9813 23.448 9.336 23.448ZM9.336 20.12C11.0213 20.12 12.2587 19.6507 13.048 18.712C13.8587 17.7733 14.264 16.44 14.264 14.712V8.856C14.264 7.10667 13.8267 5.77333 12.952 4.856C12.0773 3.93867 10.872 3.48 9.336 3.48C7.75733 3.48 6.54133 3.94933 5.688 4.888C4.83467 5.82667 4.408 7.14933 4.408 8.856V14.712C4.408 16.4827 4.81333 17.8267 5.624 18.744C6.456 19.6613 7.69333 20.12 9.336 20.12ZM27.9435 23V3.288H27.3995L24.0395 10.616H20.1035L24.8715 0.599998H31.6555V23H27.9435Z" fill="url(#paint0_linear_517_19135)"/>
<defs>
<linearGradient id="paint0_linear_517_19135" x1="-1" y1="-4" x2="34" y2="28" gradientUnits="userSpaceOnUse">
<stop stop-color="#02FCFF"/>
<stop offset="0.5" stop-color="#4B65F1"/>
<stop offset="1" stop-color="#FA03FF"/>
</linearGradient>
</defs>
</svg>
