<svg width="38" height="24" viewBox="0 0 38 24" fill="none" xmlns="http://www.w3.org/2000/svg">
<path d="M9.336 23.448C6.712 23.448 4.61067 22.712 3.032 21.24C1.45333 19.768 0.664 17.5493 0.664 14.584V9.016C0.664 6.11467 1.45333 3.91733 3.032 2.424C4.61067 0.909332 6.712 0.151999 9.336 0.151999C11.9813 0.151999 14.0827 0.909332 15.64 2.424C17.2187 3.91733 18.008 6.11467 18.008 9.016V14.584C18.008 17.5493 17.2187 19.768 15.64 21.24C14.0827 22.712 11.9813 23.448 9.336 23.448ZM9.336 20.12C11.0213 20.12 12.2587 19.6507 13.048 18.712C13.8587 17.7733 14.264 16.44 14.264 14.712V8.856C14.264 7.10667 13.8267 5.77333 12.952 4.856C12.0773 3.93867 10.872 3.48 9.336 3.48C7.75733 3.48 6.54133 3.94933 5.688 4.888C4.83467 5.82667 4.408 7.14933 4.408 8.856V14.712C4.408 16.4827 4.81333 17.8267 5.624 18.744C6.456 19.6613 7.69333 20.12 9.336 20.12ZM21.1275 23V20.408C21.1275 18.8293 21.3835 17.5387 21.8955 16.536C22.4288 15.512 23.1862 14.68 24.1675 14.04C25.1488 13.3787 26.3435 12.8347 27.7515 12.408L29.7995 11.768C30.6315 11.4907 31.3355 11.16 31.9115 10.776C32.4875 10.392 32.9355 9.92267 33.2555 9.368C33.5755 8.792 33.7355 8.12 33.7355 7.352V7.224C33.7355 6.072 33.3408 5.16533 32.5515 4.504C31.7622 3.82133 30.7062 3.48 29.3835 3.48C28.0608 3.48 26.9835 3.84267 26.1515 4.568C25.3195 5.272 24.9035 6.31733 24.9035 7.704V8.248H21.1915V7.768C21.1915 6.14667 21.5542 4.77067 22.2795 3.64C23.0048 2.50933 23.9862 1.64533 25.2235 1.048C26.4608 0.450665 27.8475 0.151999 29.3835 0.151999C30.9195 0.151999 32.2955 0.450665 33.5115 1.048C34.7488 1.624 35.7088 2.43467 36.3915 3.48C37.0955 4.52533 37.4475 5.752 37.4475 7.16V7.48C37.4475 8.90933 37.1595 10.1147 36.5835 11.096C36.0075 12.0773 35.2075 12.888 34.1835 13.528C33.1808 14.1467 32.0395 14.6587 30.7595 15.064L28.7755 15.672C27.8155 15.9707 27.0475 16.2907 26.4715 16.632C25.9168 16.9733 25.5222 17.368 25.2875 17.816C25.0528 18.2427 24.9355 18.7867 24.9355 19.448V19.672H37.2555V23H21.1275Z" fill="url(#paint0_linear_517_19136)"/>
<defs>
<linearGradient id="paint0_linear_517_19136" x1="-1" y1="-4" x2="34.1068" y2="32.683" gradientUnits="userSpaceOnUse">
<stop stop-color="#02FCFF"/>
<stop offset="0.5" stop-color="#4B65F1"/>
<stop offset="1" stop-color="#FA03FF"/>
</linearGradient>
</defs>
</svg>
