<svg width="84" height="84" viewBox="0 0 84 84" fill="none" xmlns="http://www.w3.org/2000/svg">
<rect x="0.5" y="0.5" width="83" height="83" rx="15.5" fill="url(#paint0_linear_710_45)" stroke="url(#paint1_linear_710_45)"/>
<path d="M53.0694 46.6589C54.0423 44.3465 54.2661 41.7874 53.7094 39.3412C53.1527 36.8951 51.8435 34.6848 49.9657 33.0212C48.0879 31.3576 45.736 30.3243 43.2405 30.0665C40.7451 29.8087 38.2316 30.3393 36.0534 31.5839L34.5639 28.9784C36.8402 27.6771 39.4179 26.9955 42.04 27.0015C44.662 27.0076 47.2366 27.7011 49.5069 29.0129C56.2419 32.9024 58.8219 41.2274 55.6839 48.1679L57.6954 49.3304L51.4479 52.6514L51.2004 45.5804L53.0694 46.6589ZM30.9444 37.3499C29.9711 39.6624 29.747 42.2219 30.3037 44.6683C30.8604 47.1148 32.1699 49.3253 34.048 50.989C35.9261 52.6527 38.2783 53.686 40.7741 53.9435C43.2699 54.2011 45.7836 53.67 47.9619 52.4249L49.4499 55.0304C47.1735 56.3316 44.5956 57.0131 41.9736 57.0067C39.3515 57.0004 36.777 56.3066 34.5069 54.9944C27.7719 51.1049 25.1919 42.7799 28.3314 35.8394L26.3184 34.6799L32.5659 31.3574L32.8134 38.4284L30.9459 37.3484L30.9444 37.3499ZM36.7569 45.0044H45.0069C45.2058 45.0044 45.3965 44.9254 45.5372 44.7847C45.6778 44.6441 45.7569 44.4533 45.7569 44.2544C45.7569 44.0555 45.6778 43.8647 45.5372 43.7241C45.3965 43.5834 45.2058 43.5044 45.0069 43.5044H39.0069C38.0123 43.5044 37.0585 43.1093 36.3552 42.406C35.6519 41.7028 35.2569 40.7489 35.2569 39.7544C35.2569 38.7598 35.6519 37.806 36.3552 37.1027C37.0585 36.3995 38.0123 36.0044 39.0069 36.0044H40.5069V34.5044H43.5069V36.0044H47.2569V39.0044H39.0069C38.8079 39.0044 38.6172 39.0834 38.4765 39.2241C38.3359 39.3647 38.2569 39.5555 38.2569 39.7544C38.2569 39.9533 38.3359 40.1441 38.4765 40.2847C38.6172 40.4254 38.8079 40.5044 39.0069 40.5044H45.0069C46.0014 40.5044 46.9552 40.8995 47.6585 41.6027C48.3618 42.306 48.7569 43.2598 48.7569 44.2544C48.7569 45.2489 48.3618 46.2028 47.6585 46.906C46.9552 47.6093 46.0014 48.0044 45.0069 48.0044H43.5069V49.5044H40.5069V48.0044H36.7569V45.0044Z" fill="white"/>
<defs>
<linearGradient id="paint0_linear_710_45" x1="-18.4161" y1="-19.6816" x2="105.27" y2="24.6278" gradientUnits="userSpaceOnUse">
<stop stop-color="#202054"/>
<stop offset="1" stop-color="#07073B" stop-opacity="0.6"/>
</linearGradient>
<linearGradient id="paint1_linear_710_45" x1="42" y1="0" x2="42" y2="84" gradientUnits="userSpaceOnUse">
<stop stop-color="#3E3E72"/>
<stop offset="1" stop-color="#3E3E72" stop-opacity="0"/>
</linearGradient>
</defs>
</svg>
