<svg width="84" height="84" viewBox="0 0 84 84" fill="none" xmlns="http://www.w3.org/2000/svg">
<rect width="84" height="84" rx="16" fill="url(#paint0_linear_625_4131)"/>
<path d="M53.2119 24.0058L29.8278 24C29.0777 24.0003 28.3584 24.2984 27.8282 24.8289C27.2979 25.3594 27 26.0788 27 26.8288L27.0086 57.167C27.0088 57.5387 27.0822 57.9066 27.2247 58.2499C27.3672 58.5931 27.5759 58.9049 27.8389 59.1675C28.102 59.43 28.4141 59.6382 28.7577 59.78C29.1012 59.9219 29.4693 59.9947 29.8409 59.9942L53.225 60C53.5968 60 53.965 59.9267 54.3085 59.7844C54.652 59.642 54.964 59.4333 55.2267 59.1702C55.4895 58.9071 55.6978 58.5948 55.8397 58.2511C55.9817 57.9075 56.0544 57.5392 56.0539 57.1674L56.0454 26.8292C56.0439 26.0791 55.7446 25.3602 55.2133 24.8308C54.6819 24.3013 53.962 24.0046 53.2119 24.0058ZM42.9388 42.3892C42.9387 42.7214 42.8217 43.043 42.6083 43.2977C42.3948 43.5523 42.0986 43.7236 41.7714 43.7817C41.6897 43.796 41.607 43.8034 41.524 43.8037L34.0733 43.8016C33.7151 43.7777 33.3793 43.6184 33.1341 43.356C32.8889 43.0936 32.7528 42.7478 32.7532 42.3888C32.7536 42.0297 32.8905 41.6842 33.1363 41.4224C33.382 41.1606 33.7182 41.002 34.0765 40.9789L41.5225 40.9747C41.7084 40.9745 41.8925 41.0109 42.0643 41.0818C42.2362 41.1528 42.3923 41.2569 42.5239 41.3883C42.6554 41.5197 42.7598 41.6757 42.8309 41.8474C42.9021 42.0192 42.9388 42.2033 42.9388 42.3892ZM50.3797 36.7362C50.3796 37.0682 50.2629 37.3895 50.0498 37.644C49.8367 37.8986 49.5408 38.07 49.2141 38.1284C49.1317 38.1431 49.0482 38.15 48.9646 38.1491L34.0636 38.1465C33.6884 38.1462 33.3286 37.9969 33.0634 37.7314C32.7983 37.4659 32.6495 37.1059 32.6497 36.7307C32.65 36.3555 32.7993 35.9957 33.0648 35.7305C33.3303 35.4654 33.6903 35.3166 34.0655 35.3168L48.9668 35.3212C49.1529 35.3207 49.3372 35.3569 49.5092 35.4277C49.6812 35.4986 49.8375 35.6027 49.9692 35.734C50.101 35.8654 50.2055 36.0215 50.2768 36.1933C50.3481 36.3651 50.3849 36.5493 50.3849 36.7353L50.3797 36.7362ZM50.3783 31.0779C50.3783 31.4101 50.2613 31.7317 50.0478 31.9863C49.8344 32.241 49.5381 32.4123 49.211 32.4703C49.1293 32.4846 49.0465 32.492 48.9635 32.4924L34.0622 32.4881C33.8732 32.4935 33.6849 32.4609 33.5087 32.3922C33.3325 32.3236 33.1718 32.2203 33.0362 32.0884C32.9005 31.9566 32.7927 31.7989 32.7191 31.6247C32.6455 31.4504 32.6076 31.2632 32.6077 31.074C32.6077 30.8849 32.6457 30.6977 32.7193 30.5235C32.793 30.3493 32.9008 30.1916 33.0365 30.0598C33.1722 29.928 33.3329 29.8248 33.5092 29.7562C33.6854 29.6876 33.8737 29.6551 34.0627 29.6605L48.9637 29.6631C49.1499 29.6624 49.3343 29.6984 49.5065 29.7691C49.6787 29.8399 49.8353 29.9439 49.9672 30.0752C50.0991 30.2066 50.2037 30.3627 50.2752 30.5346C50.3466 30.7065 50.3835 30.8908 50.3835 31.0769L50.3783 31.0779Z" fill="white"/>
<defs>
<linearGradient id="paint0_linear_625_4131" x1="0.499999" y1="6.06291e-07" x2="84.5" y2="84" gradientUnits="userSpaceOnUse">
<stop stop-color="#02FCFF"/>
<stop offset="0.5" stop-color="#4B65F1"/>
<stop offset="1" stop-color="#FA03FF"/>
</linearGradient>
</defs>
</svg>
