<svg width="84" height="84" viewBox="0 0 84 84" fill="none" xmlns="http://www.w3.org/2000/svg">
<rect width="84" height="84" rx="16" fill="url(#paint0_linear_773_45)"/>
<path d="M56.4082 31.3949L55.2835 28.8956L52.7842 27.771C52.6284 27.7 52.4963 27.5856 52.4036 27.4416C52.311 27.2976 52.2617 27.1299 52.2617 26.9587C52.2617 26.7874 52.311 26.6198 52.4036 26.4758C52.4963 26.3318 52.6284 26.2174 52.7842 26.1464L55.2835 25.0218L56.4082 22.5225C56.4792 22.3667 56.5935 22.2346 56.7375 22.1419C56.8815 22.0493 57.0492 22 57.2204 22C57.3917 22 57.5593 22.0493 57.7033 22.1419C57.8473 22.2346 57.9617 22.3667 58.0327 22.5225L59.1573 25.0218L61.6566 26.1464C61.8124 26.2174 61.9446 26.3318 62.0372 26.4758C62.1298 26.6198 62.1791 26.7874 62.1791 26.9587C62.1791 27.1299 62.1298 27.2976 62.0372 27.4416C61.9446 27.5856 61.8124 27.7 61.6566 27.771L59.1573 28.8956L58.0327 31.3949C57.7292 32.0911 56.7295 32.0911 56.4082 31.3949ZM62.1922 39.8388L61.6209 38.5535C61.5499 38.3976 61.4356 38.2655 61.2915 38.1729C61.1475 38.0802 60.9799 38.0309 60.8086 38.0309C60.6374 38.0309 60.4698 38.0802 60.3257 38.1729C60.1817 38.2655 60.0674 38.3976 59.9964 38.5535L59.4251 39.8388L58.1219 40.4101C57.9661 40.4811 57.834 40.5954 57.7413 40.7394C57.6487 40.8834 57.5994 41.0511 57.5994 41.2223C57.5994 41.3936 57.6487 41.5612 57.7413 41.7052C57.834 41.8492 57.9661 41.9636 58.1219 42.0346L59.4073 42.6058L59.9785 43.909C60.0495 44.0648 60.1639 44.197 60.3079 44.2896C60.4519 44.3823 60.6195 44.4315 60.7908 44.4315C60.962 44.4315 61.1297 44.3823 61.2737 44.2896C61.4177 44.197 61.532 44.0648 61.603 43.909L62.1743 42.6237L63.4775 42.0524C63.6333 41.9814 63.7654 41.8671 63.8581 41.7231C63.9507 41.579 64 41.4114 64 41.2402C64 41.0689 63.9507 40.9013 63.8581 40.7573C63.7654 40.6132 63.6333 40.4989 63.4775 40.4279L62.1922 39.8388ZM53.1948 42.7843L55.3906 44.4446C56.1047 44.9801 56.301 45.9798 55.8547 46.7653L52.9628 51.7638C52.5165 52.5493 51.5525 52.8706 50.7313 52.5136L48.1785 51.4425C47.8214 51.6746 47.4287 51.9066 47.0359 52.103L46.6968 54.8522C46.5896 55.7448 45.822 56.4231 44.9294 56.4231H39.1633C38.2707 56.4231 37.5031 55.7448 37.396 54.8522L37.0568 52.103C36.664 51.9066 36.2891 51.6924 35.9143 51.4425L33.3614 52.5136C32.5403 52.8706 31.5763 52.5493 31.13 51.7638L28.238 46.7653C27.7917 45.9798 27.988 44.998 28.7021 44.4446L30.8979 42.7843V42.1238C30.8979 41.9096 30.8979 41.6775 30.9157 41.4633L28.72 39.8031C28.0059 39.2675 27.8095 38.2678 28.2558 37.4823L31.1478 32.4838C31.5941 31.6984 32.5581 31.377 33.3793 31.7341L35.9321 32.8052C36.2891 32.5731 36.6819 32.341 37.0746 32.1447L37.4138 29.3955C37.5031 28.5207 38.2707 27.8424 39.1633 27.8424H44.9294C45.822 27.8424 46.5896 28.5207 46.6968 29.4133L47.0359 32.1625C47.4287 32.3589 47.8036 32.5731 48.1785 32.823L50.7313 31.7519C51.5525 31.3949 52.5165 31.7162 52.9628 32.5017L55.8547 37.5002C56.301 38.2857 56.1047 39.2675 55.3906 39.8209L53.1948 41.4812C53.2127 41.6954 53.2127 41.9096 53.2127 42.1417C53.2127 42.3738 53.2127 42.5701 53.1948 42.7843ZM47.4108 42.1238C47.4108 39.1604 45.0187 36.7683 42.0553 36.7683C39.0919 36.7683 36.6997 39.1604 36.6997 42.1238C36.6997 45.0872 39.0919 47.4794 42.0553 47.4794C45.0187 47.4794 47.4108 45.0872 47.4108 42.1238Z" fill="white"/>
<defs>
<linearGradient id="paint0_linear_773_45" x1="0.499999" y1="6.06291e-07" x2="84.5" y2="84" gradientUnits="userSpaceOnUse">
<stop stop-color="#02FCFF"/>
<stop offset="0.5" stop-color="#4B65F1"/>
<stop offset="1" stop-color="#FA03FF"/>
</linearGradient>
</defs>
</svg>
