<svg width="930" height="75" viewBox="0 0 930 75" fill="none" xmlns="http://www.w3.org/2000/svg">
<circle cx="66.5" cy="16" r="16" fill="#35FF3D"/>
<path d="M59.5 16L64.5 21L74.5 11" stroke="#020236" stroke-width="3" stroke-linecap="round" stroke-linejoin="round"/>
<path d="M9.73145 71L8.65039 67.7217H3.9834L2.90234 71H0.564453L5.06445 58.3174H7.62207L12.1221 71H9.73145ZM6.28613 60.5586L4.51074 65.9727H8.11426L6.34766 60.5586H6.28613ZM25.165 61.6836L22.6426 71H20.3398L18.5029 64.1885H18.459L16.6309 71H14.3457L11.8232 61.6836H14.0205L15.5938 68.8379H15.6377L17.457 61.6836H19.5576L21.377 68.8379H21.4297L23.0029 61.6836H25.165ZM29.498 69.4971C30.7373 69.4971 31.7305 68.6709 31.7305 67.5459V66.834L29.5771 66.9658C28.5225 67.0361 27.916 67.5107 27.916 68.249C27.916 69.0137 28.5488 69.4971 29.498 69.4971ZM28.8389 71.1494C27.0371 71.1494 25.7275 70.0156 25.7275 68.3369C25.7275 66.6846 27.002 65.6914 29.2695 65.5508L31.7305 65.4102V64.7422C31.7305 63.7666 31.0713 63.2041 29.9902 63.2041C28.9531 63.2041 28.2939 63.7051 28.1533 64.4785H26.123C26.2197 62.7383 27.7051 61.4902 30.0781 61.4902C32.3896 61.4902 33.8926 62.7119 33.8926 64.584V71H31.7832V69.5146H31.7393C31.2031 70.5254 30.0342 71.1494 28.8389 71.1494ZM35.7119 71V61.6836H37.9004V71H35.7119ZM36.8018 60.4619C36.125 60.4619 35.5889 59.9346 35.5889 59.2754C35.5889 58.6074 36.125 58.0801 36.8018 58.0801C37.4873 58.0801 38.0234 58.6074 38.0234 59.2754C38.0234 59.9346 37.4873 60.4619 36.8018 60.4619ZM40.3438 59.5039H42.5322V61.6836H44.29V63.3711H42.5322V68.2139C42.5322 68.9785 42.8838 69.3301 43.6572 69.3301C43.8594 69.3301 44.1406 69.3125 44.2812 69.2861V70.9561C44.0439 71.0088 43.6133 71.0439 43.1475 71.0439C41.1348 71.0439 40.3438 70.332 40.3438 68.5215V63.3711H39.0078V61.6836H40.3438V59.5039ZM45.8369 71V61.6836H48.0254V71H45.8369ZM46.9268 60.4619C46.25 60.4619 45.7139 59.9346 45.7139 59.2754C45.7139 58.6074 46.25 58.0801 46.9268 58.0801C47.6123 58.0801 48.1484 58.6074 48.1484 59.2754C48.1484 59.9346 47.6123 60.4619 46.9268 60.4619ZM49.8623 71V61.6836H51.9629V63.2832H52.0068C52.5078 62.1758 53.501 61.5078 54.9336 61.5078C56.9902 61.5078 58.1592 62.8262 58.1592 64.9795V71H55.9707V65.4189C55.9707 64.1006 55.3555 63.3623 54.1074 63.3623C52.8506 63.3623 52.0508 64.2676 52.0508 65.6035V71H49.8623ZM64.0303 69.2686C65.4277 69.2686 66.333 68.1348 66.333 66.3154C66.333 64.5049 65.4277 63.3271 64.0303 63.3271C62.6504 63.3271 61.7715 64.4873 61.7715 66.3154C61.7715 68.1611 62.6504 69.2686 64.0303 69.2686ZM64.0215 74.5156C61.7188 74.5156 60.0664 73.3379 59.8467 71.7031H62.0176C62.2549 72.415 63.0547 72.8984 64.0918 72.8984C65.5156 72.8984 66.333 72.0986 66.333 70.9121V69.3389H66.2803C65.7969 70.3408 64.6982 71.0088 63.3623 71.0088C61.0596 71.0088 59.5303 69.207 59.5303 66.3066C59.5303 63.3623 61.0244 61.5254 63.4062 61.5254C64.7334 61.5254 65.8057 62.2109 66.3418 63.2832H66.377V61.6836H68.5215V70.8506C68.5215 73.0742 66.7373 74.5156 64.0215 74.5156ZM77.3896 71.1494C75.043 71.1494 73.5225 69.2949 73.5225 66.333C73.5225 63.3887 75.043 61.5254 77.3896 61.5254C78.7256 61.5254 79.7803 62.2197 80.2725 63.248H80.3252V58.3174H82.5137V71H80.3691V69.4092H80.334C79.8242 70.4551 78.752 71.1494 77.3896 71.1494ZM78.0488 63.3271C76.6426 63.3271 75.7637 64.4961 75.7637 66.3418C75.7637 68.1963 76.6338 69.3564 78.0488 69.3564C79.4287 69.3564 80.334 68.1875 80.334 66.3418C80.334 64.5137 79.4287 63.3271 78.0488 63.3271ZM88.3672 63.1865C87.1367 63.1865 86.249 64.127 86.1611 65.4277H90.5117C90.4678 64.1094 89.624 63.1865 88.3672 63.1865ZM90.5205 68.2139H92.5684C92.2871 69.9717 90.6523 71.1846 88.4463 71.1846C85.6514 71.1846 83.9639 69.3477 83.9639 66.377C83.9639 63.4326 85.6689 61.4902 88.3584 61.4902C91.0039 61.4902 92.6562 63.3271 92.6562 66.1572V66.8691H86.1436V67.001C86.1436 68.4951 87.0576 69.4971 88.4902 69.4971C89.5098 69.4971 90.2832 68.9873 90.5205 68.2139ZM99.1865 61.5254C101.551 61.5254 103.054 63.3623 103.054 66.3418C103.054 69.3125 101.56 71.1494 99.2217 71.1494C97.8682 71.1494 96.8135 70.499 96.3037 69.4531H96.2598V74.0674H94.0713V61.6836H96.207V63.292H96.251C96.7783 62.2109 97.833 61.5254 99.1865 61.5254ZM98.5186 69.3564C99.9336 69.3564 100.812 68.1875 100.812 66.3418C100.812 64.5049 99.9336 63.3271 98.5186 63.3271C97.1562 63.3271 96.251 64.5312 96.2422 66.3418C96.251 68.1699 97.1562 69.3564 98.5186 69.3564ZM108.582 71.1846C105.849 71.1846 104.073 69.3652 104.073 66.3418C104.073 63.3359 105.866 61.4902 108.582 61.4902C111.298 61.4902 113.091 63.3271 113.091 66.3418C113.091 69.3652 111.315 71.1846 108.582 71.1846ZM108.582 69.4531C109.971 69.4531 110.867 68.3281 110.867 66.3418C110.867 64.3643 109.971 63.2305 108.582 63.2305C107.202 63.2305 106.297 64.3643 106.297 66.3418C106.297 68.3281 107.193 69.4531 108.582 69.4531ZM114.33 64.3555C114.33 62.6504 115.833 61.4902 118.101 61.4902C120.289 61.4902 121.774 62.668 121.827 64.3906H119.788C119.718 63.5908 119.076 63.0986 118.057 63.0986C117.09 63.0986 116.457 63.5557 116.457 64.2324C116.457 64.7598 116.879 65.1113 117.793 65.3311L119.454 65.7002C121.317 66.1396 122.047 66.8604 122.047 68.2402C122.047 69.998 120.421 71.1846 118.065 71.1846C115.728 71.1846 114.242 70.0244 114.093 68.2578H116.246C116.378 69.1104 117.037 69.585 118.145 69.585C119.208 69.585 119.867 69.1543 119.867 68.46C119.867 67.915 119.524 67.625 118.619 67.3965L116.923 67.001C115.2 66.5967 114.33 65.7002 114.33 64.3555ZM123.497 71V61.6836H125.686V71H123.497ZM124.587 60.4619C123.91 60.4619 123.374 59.9346 123.374 59.2754C123.374 58.6074 123.91 58.0801 124.587 58.0801C125.272 58.0801 125.809 58.6074 125.809 59.2754C125.809 59.9346 125.272 60.4619 124.587 60.4619ZM128.129 59.5039H130.317V61.6836H132.075V63.3711H130.317V68.2139C130.317 68.9785 130.669 69.3301 131.442 69.3301C131.645 69.3301 131.926 69.3125 132.066 69.2861V70.9561C131.829 71.0088 131.398 71.0439 130.933 71.0439C128.92 71.0439 128.129 70.332 128.129 68.5215V63.3711H126.793V61.6836H128.129V59.5039Z" fill="white"/>
<circle cx="334.5" cy="16" r="16" fill="#35FF3D"/>
<path d="M327 16L332 21L342 11" stroke="#020236" stroke-width="3" stroke-linecap="round" stroke-linejoin="round"/>
<path d="M298.887 71.2109C295.266 71.2109 292.989 68.7236 292.989 64.6543C292.989 60.6113 295.283 58.1064 298.887 58.1064C301.831 58.1064 304.072 59.9434 304.354 62.668H302.121C301.822 61.0771 300.53 60.0312 298.887 60.0312C296.707 60.0312 295.31 61.8242 295.31 64.6543C295.31 67.502 296.698 69.2861 298.896 69.2861C300.574 69.2861 301.778 68.3809 302.13 66.8516H304.354C303.958 69.5674 301.884 71.2109 298.887 71.2109ZM309.979 71.1846C307.245 71.1846 305.47 69.3652 305.47 66.3418C305.47 63.3359 307.263 61.4902 309.979 61.4902C312.694 61.4902 314.487 63.3271 314.487 66.3418C314.487 69.3652 312.712 71.1846 309.979 71.1846ZM309.979 69.4531C311.367 69.4531 312.264 68.3281 312.264 66.3418C312.264 64.3643 311.367 63.2305 309.979 63.2305C308.599 63.2305 307.693 64.3643 307.693 66.3418C307.693 68.3281 308.59 69.4531 309.979 69.4531ZM315.894 71V61.6836H317.994V63.2832H318.038C318.539 62.1758 319.532 61.5078 320.965 61.5078C323.021 61.5078 324.19 62.8262 324.19 64.9795V71H322.002V65.4189C322.002 64.1006 321.387 63.3623 320.139 63.3623C318.882 63.3623 318.082 64.2676 318.082 65.6035V71H315.894ZM326.555 71V63.3711H325.28V61.71H326.555V60.8838C326.555 59.0732 327.416 58.2207 329.438 58.2207C329.868 58.2207 330.343 58.2646 330.615 58.3174V59.8467C330.431 59.8203 330.176 59.7939 329.921 59.7939C329.086 59.7939 328.708 60.1895 328.708 60.9453V61.71H330.571V63.3711H328.743V71H326.555ZM332.065 71V61.6836H334.254V71H332.065ZM333.155 60.4619C332.479 60.4619 331.942 59.9346 331.942 59.2754C331.942 58.6074 332.479 58.0801 333.155 58.0801C333.841 58.0801 334.377 58.6074 334.377 59.2754C334.377 59.9346 333.841 60.4619 333.155 60.4619ZM336.091 71V61.6836H338.191V63.3096H338.235C338.552 62.1758 339.369 61.5254 340.468 61.5254C340.749 61.5254 340.995 61.5781 341.153 61.6133V63.5908C340.969 63.5205 340.635 63.4678 340.266 63.4678C339.026 63.4678 338.279 64.2676 338.279 65.5771V71H336.091ZM342.278 71V61.6836H344.379V63.3008H344.423C344.827 62.2197 345.812 61.5078 347.077 61.5078C348.396 61.5078 349.336 62.1846 349.679 63.3799H349.731C350.18 62.2285 351.287 61.5078 352.632 61.5078C354.469 61.5078 355.673 62.7471 355.673 64.6104V71H353.484V65.1465C353.484 64.0039 352.887 63.3535 351.814 63.3535C350.76 63.3535 350.039 64.127 350.039 65.2432V71H347.912V65.0322C347.912 63.9951 347.279 63.3535 346.26 63.3535C345.205 63.3535 344.467 64.1709 344.467 65.2959V71H342.278ZM361.447 63.1865C360.217 63.1865 359.329 64.127 359.241 65.4277H363.592C363.548 64.1094 362.704 63.1865 361.447 63.1865ZM363.601 68.2139H365.648C365.367 69.9717 363.732 71.1846 361.526 71.1846C358.731 71.1846 357.044 69.3477 357.044 66.377C357.044 63.4326 358.749 61.4902 361.438 61.4902C364.084 61.4902 365.736 63.3271 365.736 66.1572V66.8691H359.224V67.001C359.224 68.4951 360.138 69.4971 361.57 69.4971C362.59 69.4971 363.363 68.9873 363.601 68.2139ZM370.632 71.1494C368.285 71.1494 366.765 69.2949 366.765 66.333C366.765 63.3887 368.285 61.5254 370.632 61.5254C371.968 61.5254 373.022 62.2197 373.515 63.248H373.567V58.3174H375.756V71H373.611V69.4092H373.576C373.066 70.4551 371.994 71.1494 370.632 71.1494ZM371.291 63.3271C369.885 63.3271 369.006 64.4961 369.006 66.3418C369.006 68.1963 369.876 69.3564 371.291 69.3564C372.671 69.3564 373.576 68.1875 373.576 66.3418C373.576 64.5137 372.671 63.3271 371.291 63.3271Z" fill="white"/>
<path d="M617.5 16C617.5 19.4703 616.297 22.8333 614.095 25.5159C611.894 28.1985 608.83 30.0348 605.426 30.7118C602.023 31.3888 598.49 30.8647 595.429 29.2288C592.368 27.5929 589.97 24.9464 588.642 21.7403C587.314 18.5341 587.139 14.9666 588.146 11.6457C589.153 8.32483 591.281 5.45597 594.166 3.52796C597.052 1.59994 600.517 0.732078 603.97 1.07223C607.424 1.41238 610.653 2.9395 613.107 5.3934" stroke="#35FF3D" stroke-width="2" stroke-linecap="round" stroke-linejoin="round"/>
<path d="M585.678 71H583.639V62H583.577L579.912 70.8945H578.365L574.7 62H574.639V71H572.591V58.3174H575.219L579.104 67.8887H579.174L583.059 58.3174H585.678V71ZM590.187 71H587.919V58.3174H590.187V71ZM591.689 71L595.82 64.6455V64.584L591.725 58.3174H594.405L597.341 63.0811H597.411L600.382 58.3174H602.922L598.694 64.6367V64.6982L602.852 71H600.241L597.253 66.3418H597.183L594.159 71H591.689ZM606.692 71H604.425V58.3174H606.692V71ZM611.113 71H608.925V58.3174H610.894L617.187 67.2031H617.266V58.3174H619.445V71H617.494L611.192 62.1055H611.113V71ZM632.787 65.709C632.787 69.1455 630.73 71.2109 627.259 71.2109C623.559 71.2109 621.256 68.6973 621.256 64.6104C621.256 60.585 623.55 58.1064 627.215 58.1064C630.098 58.1064 632.277 59.8115 632.69 62.3516H630.388C629.957 60.8926 628.779 60.0312 627.224 60.0312C624.938 60.0312 623.576 61.7275 623.576 64.584C623.576 67.502 625 69.2861 627.285 69.2861C629.201 69.2861 630.528 68.0732 630.563 66.2979L630.572 66.0869H627.514V64.3555H632.787V65.709Z" fill="white"/>
<circle cx="870.5" cy="16" r="15" stroke="#3A3A63" stroke-width="2"/>
<path d="M811.991 67.4316H814.188C814.329 68.6006 815.498 69.3652 817.045 69.3652C818.574 69.3652 819.638 68.6094 819.638 67.5547C819.638 66.6406 818.987 66.1133 817.388 65.7354L815.744 65.3486C813.406 64.8125 812.299 63.6875 812.299 61.877C812.299 59.627 814.259 58.1064 817.019 58.1064C819.813 58.1064 821.659 59.6182 821.712 61.8506H819.55C819.444 60.6641 818.451 59.9521 817.001 59.9521C815.568 59.9521 814.602 60.6553 814.602 61.71C814.602 62.5537 815.243 63.0459 816.799 63.415L818.258 63.749C820.833 64.3379 821.923 65.4014 821.923 67.291C821.923 69.6992 819.989 71.2109 816.922 71.2109C814.004 71.2109 812.088 69.7695 811.991 67.4316ZM827.434 63.1865C826.203 63.1865 825.315 64.127 825.228 65.4277H829.578C829.534 64.1094 828.69 63.1865 827.434 63.1865ZM829.587 68.2139H831.635C831.354 69.9717 829.719 71.1846 827.513 71.1846C824.718 71.1846 823.03 69.3477 823.03 66.377C823.03 63.4326 824.735 61.4902 827.425 61.4902C830.07 61.4902 831.723 63.3271 831.723 66.1572V66.8691H825.21V67.001C825.21 68.4951 826.124 69.4971 827.557 69.4971C828.576 69.4971 829.35 68.9873 829.587 68.2139ZM833.138 71V61.6836H835.238V63.2832H835.282C835.783 62.1758 836.776 61.5078 838.209 61.5078C840.266 61.5078 841.435 62.8262 841.435 64.9795V71H839.246V65.4189C839.246 64.1006 838.631 63.3623 837.383 63.3623C836.126 63.3623 835.326 64.2676 835.326 65.6035V71H833.138ZM846.673 71.1494C844.326 71.1494 842.806 69.2949 842.806 66.333C842.806 63.3887 844.326 61.5254 846.673 61.5254C848.009 61.5254 849.063 62.2197 849.556 63.248H849.608V58.3174H851.797V71H849.652V69.4092H849.617C849.107 70.4551 848.035 71.1494 846.673 71.1494ZM847.332 63.3271C845.926 63.3271 845.047 64.4961 845.047 66.3418C845.047 68.1963 845.917 69.3564 847.332 69.3564C848.712 69.3564 849.617 68.1875 849.617 66.3418C849.617 64.5137 848.712 63.3271 847.332 63.3271ZM853.687 71V61.6836H855.875V71H853.687ZM854.776 60.4619C854.1 60.4619 853.563 59.9346 853.563 59.2754C853.563 58.6074 854.1 58.0801 854.776 58.0801C855.462 58.0801 855.998 58.6074 855.998 59.2754C855.998 59.9346 855.462 60.4619 854.776 60.4619ZM857.712 71V61.6836H859.812V63.2832H859.856C860.357 62.1758 861.351 61.5078 862.783 61.5078C864.84 61.5078 866.009 62.8262 866.009 64.9795V71H863.82V65.4189C863.82 64.1006 863.205 63.3623 861.957 63.3623C860.7 63.3623 859.9 64.2676 859.9 65.6035V71H857.712ZM871.88 69.2686C873.277 69.2686 874.183 68.1348 874.183 66.3154C874.183 64.5049 873.277 63.3271 871.88 63.3271C870.5 63.3271 869.621 64.4873 869.621 66.3154C869.621 68.1611 870.5 69.2686 871.88 69.2686ZM871.871 74.5156C869.568 74.5156 867.916 73.3379 867.696 71.7031H869.867C870.104 72.415 870.904 72.8984 871.941 72.8984C873.365 72.8984 874.183 72.0986 874.183 70.9121V69.3389H874.13C873.646 70.3408 872.548 71.0088 871.212 71.0088C868.909 71.0088 867.38 69.207 867.38 66.3066C867.38 63.3623 868.874 61.5254 871.256 61.5254C872.583 61.5254 873.655 62.2109 874.191 63.2832H874.227V61.6836H876.371V70.8506C876.371 73.0742 874.587 74.5156 871.871 74.5156ZM882.365 59.5039H884.554V61.6836H886.312V63.3711H884.554V68.2139C884.554 68.9785 884.905 69.3301 885.679 69.3301C885.881 69.3301 886.162 69.3125 886.303 69.2861V70.9561C886.065 71.0088 885.635 71.0439 885.169 71.0439C883.156 71.0439 882.365 70.332 882.365 68.5215V63.3711H881.029V61.6836H882.365V59.5039ZM891.752 71.1846C889.019 71.1846 887.243 69.3652 887.243 66.3418C887.243 63.3359 889.036 61.4902 891.752 61.4902C894.468 61.4902 896.261 63.3271 896.261 66.3418C896.261 69.3652 894.485 71.1846 891.752 71.1846ZM891.752 69.4531C893.141 69.4531 894.037 68.3281 894.037 66.3418C894.037 64.3643 893.141 63.2305 891.752 63.2305C890.372 63.2305 889.467 64.3643 889.467 66.3418C889.467 68.3281 890.363 69.4531 891.752 69.4531ZM902.308 74.4629C902.185 74.4629 901.561 74.4541 901.446 74.4277V72.6963C901.561 72.7227 901.947 72.7314 902.079 72.7314C902.984 72.7314 903.45 72.3887 903.696 71.5273C903.696 71.501 903.828 71.0352 903.819 71.0088L900.506 61.6836H902.896L905.094 69.1367H905.129L907.326 61.6836H909.629L906.263 71.3691C905.463 73.6807 904.435 74.4629 902.308 74.4629ZM914.533 71.1846C911.8 71.1846 910.024 69.3652 910.024 66.3418C910.024 63.3359 911.817 61.4902 914.533 61.4902C917.249 61.4902 919.042 63.3271 919.042 66.3418C919.042 69.3652 917.267 71.1846 914.533 71.1846ZM914.533 69.4531C915.922 69.4531 916.818 68.3281 916.818 66.3418C916.818 64.3643 915.922 63.2305 914.533 63.2305C913.153 63.2305 912.248 64.3643 912.248 66.3418C912.248 68.3281 913.145 69.4531 914.533 69.4531ZM928.71 61.6836V71H926.601V69.3828H926.557C926.064 70.5166 925.124 71.167 923.709 71.167C921.688 71.167 920.404 69.8574 920.404 67.7041V61.6836H922.593V67.2646C922.593 68.6006 923.243 69.3213 924.474 69.3213C925.739 69.3213 926.521 68.4248 926.521 67.0713V61.6836H928.71Z" fill="white"/>
<rect x="101" y="15" width="200" height="2" rx="1" fill="#35FF3D"/>
<rect x="369" y="15" width="200" height="2" rx="1" fill="#35FF3D"/>
<rect x="637" y="15" width="200" height="2" rx="1" fill="#3A3A63"/>
</svg>
