<svg width="12" height="8" viewBox="0 0 12 8" fill="none" xmlns="http://www.w3.org/2000/svg">
<path d="M9.776 1.43051e-06H2.22215C1.92393 -0.000430107 1.63169 0.083601 1.37924 0.24237C1.1268 0.401138 0.924484 0.628151 0.795708 0.897133C0.644961 1.21628 0.586899 1.57136 0.62814 1.9219C0.66938 2.27244 0.808263 2.60435 1.02896 2.87979L4.80589 7.45517C4.95411 7.62619 5.13736 7.76334 5.34323 7.85735C5.54909 7.95135 5.77276 8 5.99907 8C6.22538 8 6.44905 7.95135 6.65492 7.85735C6.86078 7.76334 7.04404 7.62619 7.19226 7.45517L10.9692 2.87979C11.1899 2.60435 11.3288 2.27244 11.37 1.9219C11.4112 1.57136 11.3532 1.21628 11.2024 0.897133C11.0737 0.628151 10.8713 0.401138 10.6189 0.24237C10.3665 0.083601 10.0742 -0.000430107 9.776 1.43051e-06Z" fill="white"/>
</svg>
