<svg width="244" height="19" viewBox="0 0 244 19" fill="none" xmlns="http://www.w3.org/2000/svg">
<path d="M0.847656 13.2422H3.77734C3.96484 14.8008 5.52344 15.8203 7.58594 15.8203C9.625 15.8203 11.043 14.8125 11.043 13.4062C11.043 12.1875 10.1758 11.4844 8.04297 10.9805L5.85156 10.4648C2.73438 9.75 1.25781 8.25 1.25781 5.83594C1.25781 2.83594 3.87109 0.808594 7.55078 0.808594C11.2773 0.808594 13.7383 2.82422 13.8086 5.80078H10.9258C10.7852 4.21875 9.46094 3.26953 7.52734 3.26953C5.61719 3.26953 4.32812 4.20703 4.32812 5.61328C4.32812 6.73828 5.18359 7.39453 7.25781 7.88672L9.20312 8.33203C12.6367 9.11719 14.0898 10.5352 14.0898 13.0547C14.0898 16.2656 11.5117 18.2812 7.42188 18.2812C3.53125 18.2812 0.976562 16.3594 0.847656 13.2422ZM19.3984 18H16.375V1.08984H19.3984V18ZM39.8242 18H37.1055V6H37.0234L32.1367 17.8594H30.0742L25.1875 6H25.1055V18H22.375V1.08984H25.8789L31.0586 13.8516H31.1523L36.332 1.08984H39.8242V18ZM42.8125 1.08984H49.3867C52.75 1.08984 55.082 3.375 55.082 6.75C55.082 10.125 52.6797 12.4102 49.2578 12.4102H45.8359V18H42.8125V1.08984ZM45.8359 3.5625V9.97266H48.5781C50.7461 9.97266 52.0117 8.80078 52.0117 6.75C52.0117 4.72266 50.7578 3.5625 48.5898 3.5625H45.8359ZM67.9961 15.4453V18H57.2969V1.08984H60.3203V15.4453H67.9961ZM81.1094 15.4453V18H70.1641V1.08984H81.1094V3.64453H73.1875V8.21484H80.6758V10.6172H73.1875V15.4453H81.1094ZM105.988 18H103.27V6H103.188L98.3008 17.8594H96.2383L91.3516 6H91.2695V18H88.5391V1.08984H92.043L97.2227 13.8516H97.3164L102.496 1.08984H105.988V18ZM112 18H108.977V1.08984H112V18ZM114.004 18L119.512 9.52734V9.44531L114.051 1.08984H117.625L121.539 7.44141H121.633L125.594 1.08984H128.98L123.344 9.51562V9.59766L128.887 18H125.406L121.422 11.7891H121.328L117.297 18H114.004ZM134.008 18H130.984V1.08984H134.008V18ZM139.902 18H136.984V1.08984H139.609L148 12.9375H148.105V1.08984H151.012V18H148.41L140.008 6.14062H139.902V18ZM168.801 10.9453C168.801 15.5273 166.059 18.2812 161.43 18.2812C156.496 18.2812 153.426 14.9297 153.426 9.48047C153.426 4.11328 156.484 0.808594 161.371 0.808594C165.215 0.808594 168.121 3.08203 168.672 6.46875H165.602C165.027 4.52344 163.457 3.375 161.383 3.375C158.336 3.375 156.52 5.63672 156.52 9.44531C156.52 13.3359 158.418 15.7148 161.465 15.7148C164.02 15.7148 165.789 14.0977 165.836 11.7305L165.848 11.4492H161.77V9.14062H168.801V10.9453ZM190.879 10.9453C190.879 15.5273 188.137 18.2812 183.508 18.2812C178.574 18.2812 175.504 14.9297 175.504 9.48047C175.504 4.11328 178.562 0.808594 183.449 0.808594C187.293 0.808594 190.199 3.08203 190.75 6.46875H187.68C187.105 4.52344 185.535 3.375 183.461 3.375C180.414 3.375 178.598 5.63672 178.598 9.44531C178.598 13.3359 180.496 15.7148 183.543 15.7148C186.098 15.7148 187.867 14.0977 187.914 11.7305L187.926 11.4492H183.848V9.14062H190.879V10.9453ZM196.375 1.08984V11.7656C196.375 14.0742 197.793 15.6445 200.301 15.6445C202.809 15.6445 204.238 14.0742 204.238 11.7656V1.08984H207.25V12.0352C207.25 15.7266 204.59 18.2812 200.301 18.2812C196.023 18.2812 193.352 15.7266 193.352 12.0352V1.08984H196.375ZM213.273 18H210.25V1.08984H213.273V18ZM216.25 1.08984H222.426C227.477 1.08984 230.465 4.14844 230.465 9.50391C230.465 14.8594 227.488 18 222.426 18H216.25V1.08984ZM219.273 3.64453V15.4453H222.109C225.508 15.4453 227.383 13.3711 227.383 9.51562C227.383 5.73047 225.484 3.64453 222.109 3.64453H219.273ZM243.812 15.4453V18H232.867V1.08984H243.812V3.64453H235.891V8.21484H243.379V10.6172H235.891V15.4453H243.812Z" fill="url(#paint0_linear_517_19123)"/>
<defs>
<linearGradient id="paint0_linear_517_19123" x1="1.01508e-05" y1="-7.90352" x2="155.752" y2="127.591" gradientUnits="userSpaceOnUse">
<stop stop-color="#02FCFF"/>
<stop offset="0.5" stop-color="#4B65F1"/>
<stop offset="1" stop-color="#FA03FF"/>
</linearGradient>
</defs>
</svg>
