<svg width="85" height="87" viewBox="0 0 85 87" fill="none" xmlns="http://www.w3.org/2000/svg">
<path d="M19.9335 61.6262C17.7631 61.6262 15.9186 62.3857 14.3995 63.9046C12.8809 65.4249 12.1211 67.2689 12.1211 69.4394C12.1211 71.6101 12.8804 73.4542 14.3995 74.9744C15.9192 76.4934 17.7636 77.2528 19.9335 77.2528C22.0675 77.2528 23.9027 76.4934 25.44 74.9744C26.9768 73.4561 27.7452 71.6101 27.7452 69.4394C27.7452 67.2689 26.977 65.4262 25.44 63.9046C23.9025 62.387 22.0675 61.6262 19.9335 61.6262Z" fill="url(#paint0_linear_625_4812)"/>
<path d="M18.1978 45.1354C18.1978 42.7485 17.3482 40.7057 15.6482 39.0044C13.9484 37.3046 11.9046 36.4548 9.51774 36.4548C7.13064 36.4548 5.08727 37.3047 3.38725 39.0044C1.68762 40.7044 0.837891 42.7478 0.837891 45.1354C0.837891 47.522 1.68743 49.5644 3.38725 51.2648C5.08727 52.9652 7.13064 53.8151 9.51774 53.8151C11.9046 53.8151 13.9484 52.9652 15.6482 51.2648C17.3482 49.5655 18.1978 47.522 18.1978 45.1354Z" fill="url(#paint1_linear_625_4812)"/>
<path d="M68.5396 25.1725C69.7321 25.1725 70.7555 24.7469 71.6043 23.8973C72.4542 23.047 72.88 22.025 72.88 20.8317C72.88 19.6379 72.4542 18.6166 71.6043 17.7669C70.7549 16.9166 69.7321 16.4917 68.5396 16.4917C67.3458 16.4917 66.3235 16.9173 65.4736 17.7669C64.6243 18.6168 64.1992 19.6379 64.1992 20.8317C64.1992 22.0255 64.6243 23.047 65.4736 23.8973C66.3235 24.7476 67.3458 25.1725 68.5396 25.1725Z" fill="url(#paint2_linear_625_4812)"/>
<path d="M19.933 11.2842C17.2924 11.2842 15.0411 12.2156 13.1785 14.0779C11.3156 15.9402 10.3848 18.1916 10.3848 20.8316C10.3848 23.4726 11.3156 25.723 13.1785 27.5861C15.0417 29.4489 17.293 30.3802 19.933 30.3802C22.573 30.3802 24.8244 29.4484 26.6867 27.5861C28.549 25.723 29.4804 23.472 29.4804 20.8316C29.4804 18.1916 28.549 15.9402 26.6867 14.0779C24.8244 12.2156 22.573 11.2842 19.933 11.2842Z" fill="url(#paint3_linear_625_4812)"/>
<path d="M82.6451 41.4458C81.6328 40.4331 80.4032 39.9272 78.957 39.9272C77.5095 39.9272 76.28 40.4331 75.2676 41.4458C74.2558 42.4586 73.75 43.6885 73.75 45.136C73.75 46.582 74.2558 47.8136 75.2676 48.8241C76.2806 49.8372 77.5095 50.343 78.957 50.343C80.4032 50.343 81.6335 49.8372 82.6451 48.8241C83.6583 47.8125 84.1635 46.582 84.1635 45.136C84.1635 43.6893 83.659 42.4591 82.6451 41.4458Z" fill="url(#paint4_linear_625_4812)"/>
<path d="M68.5394 63.3633C66.8747 63.3633 65.4462 63.9595 64.2524 65.1534C63.0599 66.3459 62.4629 67.7751 62.4629 69.4398C62.4629 71.1031 63.0599 72.5324 64.2524 73.7264C65.4462 74.9201 66.8749 75.5157 68.5394 75.5157C70.2028 75.5157 71.6312 74.9189 72.8251 73.7264C74.0189 72.5326 74.6154 71.1039 74.6154 69.4398C74.6154 67.7751 74.0189 66.3474 72.8251 65.1534C71.6314 63.9593 70.2028 63.3633 68.5394 63.3633Z" fill="url(#paint5_linear_625_4812)"/>
<path d="M44.2376 72.9099C42.3208 72.9099 40.6841 73.5894 39.327 74.9459C37.9713 76.3024 37.293 77.9382 37.293 79.8552C37.293 81.7722 37.9705 83.4082 39.327 84.7644C40.6841 86.1209 42.3201 86.7998 44.2376 86.7998C46.1547 86.7998 47.7906 86.1209 49.1471 84.7644C50.5036 83.4082 51.1817 81.7722 51.1817 79.8552C51.1817 77.9382 50.5036 76.3024 49.1471 74.9459C47.7906 73.5894 46.1547 72.9099 44.2376 72.9099Z" fill="url(#paint6_linear_625_4812)"/>
<path d="M44.2367 0C41.3438 0 38.8833 1.01218 36.8578 3.0375C34.8329 5.06301 33.8203 7.52287 33.8203 10.416C33.8203 13.3092 34.8325 15.768 36.8578 17.7937C38.8833 19.8186 41.3432 20.8314 44.2367 20.8314C47.1309 20.8314 49.5896 19.8192 51.6144 17.7937C53.6391 15.7689 54.6517 13.3092 54.6517 10.416C54.6517 7.52306 53.6391 5.06377 51.6144 3.0375C49.5896 1.01275 47.1309 0 44.2367 0Z" fill="url(#paint7_linear_625_4812)"/>
<defs>
<linearGradient id="paint0_linear_625_4812" x1="9.82501" y1="59.284" x2="29.7335" y2="78.6039" gradientUnits="userSpaceOnUse">
<stop stop-color="#02FCFF"/>
<stop offset="0.5" stop-color="#4B65F1"/>
<stop offset="1" stop-color="#FA03FF"/>
</linearGradient>
<linearGradient id="paint1_linear_625_4812" x1="-1.71327" y1="33.8528" x2="20.404" y2="55.3191" gradientUnits="userSpaceOnUse">
<stop stop-color="#02FCFF"/>
<stop offset="0.5" stop-color="#4B65F1"/>
<stop offset="1" stop-color="#FA03FF"/>
</linearGradient>
<linearGradient id="paint2_linear_625_4812" x1="62.9235" y1="15.1906" x2="73.983" y2="25.9248" gradientUnits="userSpaceOnUse">
<stop stop-color="#02FCFF"/>
<stop offset="0.5" stop-color="#4B65F1"/>
<stop offset="1" stop-color="#FA03FF"/>
</linearGradient>
<linearGradient id="paint3_linear_625_4812" x1="7.57853" y1="8.42198" x2="31.9072" y2="32.0346" gradientUnits="userSpaceOnUse">
<stop stop-color="#02FCFF"/>
<stop offset="0.5" stop-color="#4B65F1"/>
<stop offset="1" stop-color="#FA03FF"/>
</linearGradient>
<linearGradient id="paint4_linear_625_4812" x1="72.2197" y1="38.3661" x2="85.4895" y2="51.2428" gradientUnits="userSpaceOnUse">
<stop stop-color="#02FCFF"/>
<stop offset="0.5" stop-color="#4B65F1"/>
<stop offset="1" stop-color="#FA03FF"/>
</linearGradient>
<linearGradient id="paint5_linear_625_4812" x1="60.677" y1="61.5418" x2="76.1595" y2="76.5689" gradientUnits="userSpaceOnUse">
<stop stop-color="#02FCFF"/>
<stop offset="0.5" stop-color="#4B65F1"/>
<stop offset="1" stop-color="#FA03FF"/>
</linearGradient>
<linearGradient id="paint6_linear_625_4812" x1="35.2519" y1="70.828" x2="52.9479" y2="88.0021" gradientUnits="userSpaceOnUse">
<stop stop-color="#02FCFF"/>
<stop offset="0.5" stop-color="#4B65F1"/>
<stop offset="1" stop-color="#FA03FF"/>
</linearGradient>
<linearGradient id="paint7_linear_625_4812" x1="30.759" y1="-3.1223" x2="57.2986" y2="22.6367" gradientUnits="userSpaceOnUse">
<stop stop-color="#02FCFF"/>
<stop offset="0.5" stop-color="#4B65F1"/>
<stop offset="1" stop-color="#FA03FF"/>
</linearGradient>
</defs>
</svg>
