<svg width="486" height="57" viewBox="0 0 486 57" fill="none" xmlns="http://www.w3.org/2000/svg">
<path d="M5.96403 56.776C4.28403 56.776 2.9027 56.2347 1.82003 55.152C0.774698 54.1067 0.252031 52.744 0.252031 51.064V6.376C0.252031 4.696 0.774698 3.33333 1.82003 2.288C2.9027 1.20533 4.28403 0.663998 5.96403 0.663998H15.484V6.712H8.59603C7.58803 6.712 7.08403 7.272 7.08403 8.392V49.048C7.08403 50.168 7.58803 50.728 8.59603 50.728H15.484V56.776H5.96403ZM41.6938 43V10.52H30.2698V3.8H60.5098V10.52H49.0858V43H41.6938ZM72.3048 43.448C70.1394 43.448 68.2354 42.9627 66.5928 41.992C64.9874 40.984 63.7368 39.6027 62.8408 37.848C61.9448 36.0933 61.4968 34.0773 61.4968 31.8V15.224H68.5528V31.24C68.5528 33.3307 69.0568 34.8987 70.0648 35.944C71.1101 36.9893 72.5848 37.512 74.4888 37.512C76.6541 37.512 78.3341 36.8027 79.5288 35.384C80.7234 33.928 81.3208 31.912 81.3208 29.336V15.224H88.3768V43H81.4328V39.36H80.4248C79.9768 40.2933 79.1368 41.208 77.9048 42.104C76.6728 43 74.8061 43.448 72.3048 43.448ZM96.2286 43V15.224H103.173V18.248H104.181C104.666 17.3147 105.469 16.512 106.589 15.84C107.709 15.1307 109.183 14.776 111.013 14.776C112.991 14.776 114.578 15.168 115.773 15.952C116.967 16.6987 117.882 17.688 118.517 18.92H119.525C120.159 17.7253 121.055 16.736 122.213 15.952C123.37 15.168 125.013 14.776 127.141 14.776C128.858 14.776 130.407 15.1493 131.789 15.896C133.207 16.6053 134.327 17.7067 135.149 19.2C136.007 20.656 136.437 22.504 136.437 24.744V43H129.381V25.248C129.381 23.7173 128.989 22.5787 128.205 21.832C127.421 21.048 126.319 20.656 124.901 20.656C123.295 20.656 122.045 21.1787 121.149 22.224C120.29 23.232 119.861 24.688 119.861 26.592V43H112.805V25.248C112.805 23.7173 112.413 22.5787 111.629 21.832C110.845 21.048 109.743 20.656 108.325 20.656C106.719 20.656 105.469 21.1787 104.573 22.224C103.714 23.232 103.285 24.688 103.285 26.592V43H96.2286ZM160.713 43.784C158.212 43.784 156.289 43.3547 154.945 42.496C153.601 41.6373 152.612 40.6853 151.977 39.64H150.969V43H144.025V3.8H151.081V18.416H152.089C152.5 17.744 153.041 17.1093 153.713 16.512C154.423 15.9147 155.337 15.4293 156.457 15.056C157.615 14.6453 159.033 14.44 160.713 14.44C162.953 14.44 165.025 15 166.929 16.12C168.833 17.2027 170.364 18.808 171.521 20.936C172.679 23.064 173.257 25.64 173.257 28.664V29.56C173.257 32.584 172.679 35.16 171.521 37.288C170.364 39.416 168.833 41.04 166.929 42.16C165.025 43.2427 162.953 43.784 160.713 43.784ZM158.585 37.624C160.751 37.624 162.561 36.9333 164.017 35.552C165.473 34.1333 166.201 32.08 166.201 29.392V28.832C166.201 26.144 165.473 24.1093 164.017 22.728C162.599 21.3093 160.788 20.6 158.585 20.6C156.42 20.6 154.609 21.3093 153.153 22.728C151.697 24.1093 150.969 26.144 150.969 28.832V29.392C150.969 32.08 151.697 34.1333 153.153 35.552C154.609 36.9333 156.42 37.624 158.585 37.624ZM179.736 43V3.8H186.792V43H179.736ZM194.611 43V15.224H201.667V43H194.611ZM198.139 11.976C196.87 11.976 195.787 11.5653 194.891 10.744C194.033 9.92266 193.603 8.84 193.603 7.496C193.603 6.152 194.033 5.06933 194.891 4.248C195.787 3.42666 196.87 3.016 198.139 3.016C199.446 3.016 200.529 3.42666 201.387 4.248C202.246 5.06933 202.675 6.152 202.675 7.496C202.675 8.84 202.246 9.92266 201.387 10.744C200.529 11.5653 199.446 11.976 198.139 11.976ZM209.486 43V15.224H216.43V18.864H217.438C217.886 17.8933 218.726 16.9787 219.958 16.12C221.19 15.224 223.057 14.776 225.558 14.776C227.724 14.776 229.609 15.28 231.214 16.288C232.857 17.2587 234.126 18.6213 235.022 20.376C235.918 22.0933 236.366 24.1093 236.366 26.424V43H229.31V26.984C229.31 24.8933 228.788 23.3253 227.742 22.28C226.734 21.2347 225.278 20.712 223.374 20.712C221.209 20.712 219.529 21.44 218.334 22.896C217.14 24.3147 216.542 26.312 216.542 28.888V43H209.486ZM242.65 29.224V28.328C242.65 25.416 243.229 22.9333 244.386 20.88C245.544 18.7893 247.074 17.2027 248.978 16.12C250.92 15 253.029 14.44 255.306 14.44C257.845 14.44 259.768 14.888 261.074 15.784C262.381 16.68 263.333 17.6133 263.93 18.584H264.938V15.224H271.882V47.928C271.882 49.832 271.322 51.344 270.202 52.464C269.082 53.6213 267.589 54.2 265.722 54.2H247.13V48.04H263.258C264.304 48.04 264.826 47.48 264.826 46.36V39.136H263.818C263.445 39.7333 262.922 40.3493 262.25 40.984C261.578 41.5813 260.682 42.0853 259.562 42.496C258.442 42.9067 257.024 43.112 255.306 43.112C253.029 43.112 250.92 42.5707 248.978 41.488C247.074 40.368 245.544 38.7813 244.386 36.728C243.229 34.6373 242.65 32.136 242.65 29.224ZM257.322 36.952C259.488 36.952 261.298 36.2613 262.754 34.88C264.21 33.4987 264.938 31.5573 264.938 29.056V28.496C264.938 25.9573 264.21 24.016 262.754 22.672C261.336 21.2907 259.525 20.6 257.322 20.6C255.157 20.6 253.346 21.2907 251.89 22.672C250.434 24.016 249.706 25.9573 249.706 28.496V29.056C249.706 31.5573 250.434 33.4987 251.89 34.88C253.346 36.2613 255.157 36.952 257.322 36.952ZM293.7 43V3.8H309.828C312.292 3.8 314.457 4.304 316.324 5.312C318.228 6.28267 319.703 7.664 320.748 9.456C321.831 11.248 322.372 13.376 322.372 15.84V16.624C322.372 19.0507 321.812 21.1787 320.692 23.008C319.609 24.8 318.116 26.2 316.212 27.208C314.345 28.1787 312.217 28.664 309.828 28.664H301.092V43H293.7ZM301.092 21.944H309.1C310.855 21.944 312.273 21.4587 313.356 20.488C314.439 19.5173 314.98 18.192 314.98 16.512V15.952C314.98 14.272 314.439 12.9467 313.356 11.976C312.273 11.0053 310.855 10.52 309.1 10.52H301.092V21.944ZM327.721 43V15.224H334.665V18.36H335.673C336.083 17.24 336.755 16.4187 337.689 15.896C338.659 15.3733 339.779 15.112 341.049 15.112H344.409V21.384H340.937C339.145 21.384 337.67 21.8693 336.513 22.84C335.355 23.7733 334.777 25.2293 334.777 27.208V43H327.721ZM349.924 43V15.224H356.98V43H349.924ZM353.452 11.976C352.183 11.976 351.1 11.5653 350.204 10.744C349.345 9.92266 348.916 8.84 348.916 7.496C348.916 6.152 349.345 5.06933 350.204 4.248C351.1 3.42666 352.183 3.016 353.452 3.016C354.759 3.016 355.841 3.42666 356.7 4.248C357.559 5.06933 357.988 6.152 357.988 7.496C357.988 8.84 357.559 9.92266 356.7 10.744C355.841 11.5653 354.759 11.976 353.452 11.976ZM377.847 43.784C375.159 43.784 372.714 43.224 370.511 42.104C368.346 40.984 366.628 39.36 365.359 37.232C364.09 35.104 363.455 32.528 363.455 29.504V28.72C363.455 25.696 364.09 23.12 365.359 20.992C366.628 18.864 368.346 17.24 370.511 16.12C372.714 15 375.159 14.44 377.847 14.44C380.498 14.44 382.775 14.9067 384.679 15.84C386.583 16.7733 388.114 18.0613 389.271 19.704C390.466 21.3093 391.25 23.1387 391.623 25.192L384.791 26.648C384.642 25.528 384.306 24.52 383.783 23.624C383.26 22.728 382.514 22.0187 381.543 21.496C380.61 20.9733 379.434 20.712 378.015 20.712C376.596 20.712 375.308 21.0293 374.151 21.664C373.031 22.2613 372.135 23.176 371.463 24.408C370.828 25.6027 370.511 27.0773 370.511 28.832V29.392C370.511 31.1467 370.828 32.64 371.463 33.872C372.135 35.0667 373.031 35.9813 374.151 36.616C375.308 37.2133 376.596 37.512 378.015 37.512C380.143 37.512 381.748 36.9707 382.831 35.888C383.951 34.768 384.66 33.312 384.959 31.52L391.791 33.144C391.306 35.1227 390.466 36.9333 389.271 38.576C388.114 40.1813 386.583 41.4507 384.679 42.384C382.775 43.3173 380.498 43.784 377.847 43.784ZM410.267 43.784C407.505 43.784 405.059 43.2053 402.931 42.048C400.841 40.8533 399.198 39.192 398.003 37.064C396.846 34.8987 396.267 32.36 396.267 29.448V28.776C396.267 25.864 396.846 23.344 398.003 21.216C399.161 19.0507 400.785 17.3893 402.875 16.232C404.966 15.0373 407.393 14.44 410.155 14.44C412.881 14.44 415.251 15.056 417.267 16.288C419.283 17.4827 420.851 19.1627 421.971 21.328C423.091 23.456 423.651 25.9387 423.651 28.776V31.184H403.435C403.51 33.088 404.219 34.6373 405.563 35.832C406.907 37.0267 408.55 37.624 410.491 37.624C412.47 37.624 413.926 37.1947 414.859 36.336C415.793 35.4773 416.502 34.5253 416.987 33.48L422.755 36.504C422.233 37.4747 421.467 38.5387 420.459 39.696C419.489 40.816 418.182 41.7867 416.539 42.608C414.897 43.392 412.806 43.784 410.267 43.784ZM403.491 25.92H416.483C416.334 24.3147 415.681 23.0267 414.523 22.056C413.403 21.0853 411.929 20.6 410.099 20.6C408.195 20.6 406.683 21.0853 405.563 22.056C404.443 23.0267 403.753 24.3147 403.491 25.92ZM441.468 43.784C437.846 43.784 434.878 43 432.564 41.432C430.249 39.864 428.849 37.624 428.364 34.712L434.86 33.032C435.121 34.3387 435.55 35.3653 436.148 36.112C436.782 36.8587 437.548 37.4 438.444 37.736C439.377 38.0347 440.385 38.184 441.468 38.184C443.11 38.184 444.324 37.904 445.108 37.344C445.892 36.7467 446.284 36.0187 446.284 35.16C446.284 34.3013 445.91 33.648 445.164 33.2C444.417 32.7147 443.222 32.3227 441.58 32.024L440.012 31.744C438.07 31.3707 436.297 30.8667 434.692 30.232C433.086 29.56 431.798 28.6453 430.828 27.488C429.857 26.3307 429.372 24.8373 429.372 23.008C429.372 20.2453 430.38 18.136 432.396 16.68C434.412 15.1867 437.062 14.44 440.348 14.44C443.446 14.44 446.022 15.1307 448.076 16.512C450.129 17.8933 451.473 19.704 452.108 21.944L445.556 23.96C445.257 22.5413 444.641 21.5333 443.708 20.936C442.812 20.3387 441.692 20.04 440.348 20.04C439.004 20.04 437.977 20.2827 437.268 20.768C436.558 21.216 436.204 21.8507 436.204 22.672C436.204 23.568 436.577 24.24 437.324 24.688C438.07 25.0987 439.078 25.416 440.348 25.64L441.916 25.92C444.006 26.2933 445.892 26.7973 447.572 27.432C449.289 28.0293 450.633 28.9067 451.604 30.064C452.612 31.184 453.116 32.7147 453.116 34.656C453.116 37.568 452.052 39.8267 449.924 41.432C447.833 43 445.014 43.784 441.468 43.784ZM470.494 56.776V50.728H477.382C478.39 50.728 478.894 50.168 478.894 49.048V8.392C478.894 7.272 478.39 6.712 477.382 6.712H470.494V0.663998H480.014C481.694 0.663998 483.056 1.20533 484.102 2.288C485.184 3.33333 485.726 4.696 485.726 6.376V51.064C485.726 52.744 485.184 54.1067 484.102 55.152C483.056 56.2347 481.694 56.776 480.014 56.776H470.494Z" fill="url(#paint0_linear_517_19143)"/>
<defs>
<linearGradient id="paint0_linear_517_19143" x1="-4" y1="-13" x2="490" y2="60" gradientUnits="userSpaceOnUse">
<stop stop-color="#02FCFF"/>
<stop offset="0.5" stop-color="#4B65F1"/>
<stop offset="1" stop-color="#FA03FF"/>
</linearGradient>
</defs>
</svg>
