<svg width="36" height="36" viewBox="0 0 36 36" fill="none" xmlns="http://www.w3.org/2000/svg">
<circle cx="18" cy="18" r="15.75" fill="#343469"/>
<path d="M15.9273 23.9062C14.335 23.9062 12.8508 23.4431 11.6016 22.6441C12.6622 22.7127 14.534 22.5484 15.6983 21.4378C13.9469 21.3575 13.157 20.0142 13.054 19.4401C13.2028 19.4975 13.9125 19.5664 14.3132 19.4057C12.2984 18.9005 11.9894 17.1324 12.0581 16.5928C12.4358 16.8569 13.0769 16.9487 13.3287 16.9258C11.4513 15.5825 12.1267 13.5618 12.4587 13.1255C13.806 14.9921 15.8251 16.0404 18.3231 16.0987C18.276 15.8921 18.2511 15.6771 18.2511 15.4562C18.2511 13.871 19.5324 12.5859 21.1129 12.5859C21.9388 12.5859 22.6829 12.9367 23.2052 13.4979C23.7571 13.3686 24.5876 13.0659 24.9936 12.8041C24.789 13.5389 24.1518 14.1518 23.7664 14.379C23.7633 14.3713 23.7696 14.3867 23.7664 14.379C24.105 14.3278 25.0209 14.1518 25.3828 13.9063C25.2039 14.3191 24.5284 15.0054 23.974 15.3896C24.0772 19.9383 20.597 23.9062 15.9273 23.9062Z" fill="white"/>
</svg>
