<svg width="477" height="268" viewBox="0 0 477 268" fill="none" xmlns="http://www.w3.org/2000/svg">
<mask id="path-1-inside-1_517_19106" fill="white">
<path fill-rule="evenodd" clip-rule="evenodd" d="M20 0C8.95431 0 0 8.95431 0 20V100C0 111.046 8.95431 120 20 120H71C84.2548 120 95 130.745 95 144V244C95 257.255 105.745 268 119 268H453C466.255 268 477 257.255 477 244V99C477 85.7452 466.255 75 453 75H144C130.745 75 120 64.2548 120 51V20C120 8.95431 111.046 0 100 0H20Z"/>
</mask>
<path fill-rule="evenodd" clip-rule="evenodd" d="M20 0C8.95431 0 0 8.95431 0 20V100C0 111.046 8.95431 120 20 120H71C84.2548 120 95 130.745 95 144V244C95 257.255 105.745 268 119 268H453C466.255 268 477 257.255 477 244V99C477 85.7452 466.255 75 453 75H144C130.745 75 120 64.2548 120 51V20C120 8.95431 111.046 0 100 0H20Z" fill="url(#paint0_linear_517_19106)"/>
<path d="M1 20C1 9.50659 9.50659 1 20 1V-1C8.40202 -1 -1 8.40202 -1 20H1ZM1 100V20H-1V100H1ZM20 119C9.50659 119 1 110.493 1 100H-1C-1 111.598 8.40202 121 20 121V119ZM71 119H20V121H71V119ZM96 244V144H94V244H96ZM119 267C106.297 267 96 256.703 96 244H94C94 257.807 105.193 269 119 269V267ZM453 267H119V269H453V267ZM476 244C476 256.703 465.703 267 453 267V269C466.807 269 478 257.807 478 244H476ZM476 99V244H478V99H476ZM453 76C465.703 76 476 86.2975 476 99H478C478 85.1929 466.807 74 453 74V76ZM144 76H453V74H144V76ZM119 20V51H121V20H119ZM100 1C110.493 1 119 9.50659 119 20H121C121 8.40202 111.598 -1 100 -1V1ZM20 1H100V-1H20V1ZM144 74C131.297 74 121 63.7025 121 51H119C119 64.8071 130.193 76 144 76V74ZM71 121C83.7026 121 94 131.297 94 144H96C96 130.193 84.8071 119 71 119V121Z" fill="url(#paint1_linear_517_19106)" mask="url(#path-1-inside-1_517_19106)"/>
<defs>
<linearGradient id="paint0_linear_517_19106" x1="-96.563" y1="-25.2668" x2="379.656" y2="415.043" gradientUnits="userSpaceOnUse">
<stop stop-color="#202054"/>
<stop offset="1" stop-color="#07073B" stop-opacity="0.6"/>
</linearGradient>
<linearGradient id="paint1_linear_517_19106" x1="285.835" y1="23" x2="285.835" y2="229" gradientUnits="userSpaceOnUse">
<stop stop-color="#3E3E72"/>
<stop offset="1" stop-color="#3E3E72" stop-opacity="0"/>
</linearGradient>
</defs>
</svg>
