<svg width="115" height="16" viewBox="0 0 115 16" fill="none" xmlns="http://www.w3.org/2000/svg">
<line x1="0.75" y1="8.25" x2="95.25" y2="8.25" stroke="white" stroke-width="1.5" stroke-linecap="round" stroke-dasharray="4 4"/>
<path d="M107.005 16C106.778 16.0014 106.556 15.9351 106.366 15.8096C106.177 15.6842 106.03 15.5052 105.943 15.2956C105.856 15.0861 105.833 14.8553 105.878 14.6328C105.922 14.4103 106.032 14.2061 106.193 14.0463L112.249 8.00238L106.193 1.95844C106.006 1.73987 105.908 1.45872 105.92 1.17118C105.931 0.883633 106.05 0.610868 106.253 0.407391C106.457 0.203914 106.73 0.0847126 107.017 0.073606C107.305 0.0624993 107.586 0.160306 107.804 0.347481L114.66 7.20261C114.872 7.41668 114.992 7.70625 114.992 8.00809C114.992 8.30993 114.872 8.5995 114.66 8.81357L107.804 15.6687C107.592 15.8798 107.304 15.9988 107.005 16Z" fill="white"/>
<path d="M100.149 16C99.9222 16.0013 99.7 15.935 99.5109 15.8096C99.3218 15.6841 99.1744 15.5052 99.0873 15.2956C99.0003 15.086 98.9777 14.8553 99.0223 14.6327C99.067 14.4102 99.1768 14.2061 99.338 14.0463L105.393 8.00233L99.338 1.95839C99.1228 1.74325 99.002 1.45145 99.002 1.1472C99.002 0.842941 99.1228 0.551147 99.338 0.336006C99.5531 0.120865 99.8449 2.26688e-09 100.149 0C100.453 -2.26688e-09 100.745 0.120865 100.96 0.336006L107.815 7.19114C108.028 7.4052 108.148 7.69478 108.148 7.99661C108.148 8.29845 108.028 8.58803 107.815 8.80209L100.96 15.6572C100.855 15.7652 100.728 15.8511 100.589 15.9099C100.45 15.9687 100.3 15.9994 100.149 16Z" fill="white"/>
</svg>
