<svg width="56" height="56" viewBox="0 0 56 56" fill="none" xmlns="http://www.w3.org/2000/svg">
<path d="M14 46.6667V23.3334H51.3333V46.6667C51.3333 49.2334 49.2333 51.3334 46.6667 51.3334H18.6667C16.1 51.3334 14 49.2334 14 46.6667Z" fill="#F0FAFF"/>
<path d="M51.3333 18.6667V25.6667H14V18.6667C14 16.1 16.1 14 18.6667 14H46.6667C49.2333 14 51.3333 16.1 51.3333 18.6667Z" fill="#78909C"/>
<path d="M43.166 22.1666C45.099 22.1666 46.666 20.5996 46.666 18.6666C46.666 16.7336 45.099 15.1666 43.166 15.1666C41.233 15.1666 39.666 16.7336 39.666 18.6666C39.666 20.5996 41.233 22.1666 43.166 22.1666Z" fill="#37474F"/>
<path d="M23.333 22.1666C25.266 22.1666 26.833 20.5996 26.833 18.6666C26.833 16.7336 25.266 15.1666 23.333 15.1666C21.4 15.1666 19.833 16.7336 19.833 18.6666C19.833 20.5996 21.4 22.1666 23.333 22.1666Z" fill="#37474F"/>
<path d="M43.1667 11.6666C41.8833 11.6666 40.8333 12.7166 40.8333 14V18.6666C40.8333 19.95 41.8833 21 43.1667 21C44.45 21 45.5 19.95 45.5 18.6666V14C45.5 12.7166 44.45 11.6666 43.1667 11.6666ZM23.3333 11.6666C22.05 11.6666 21 12.7166 21 14V18.6666C21 19.95 22.05 21 23.3333 21C24.6167 21 25.6667 19.95 25.6667 18.6666V14C25.6667 12.7166 24.6167 11.6666 23.3333 11.6666Z" fill="#B0BEC5"/>
<path d="M37.333 39.6666H41.9997V44.3333H37.333V39.6666ZM30.333 39.6666H34.9997V44.3333H30.333V39.6666ZM23.333 39.6666H27.9997V44.3333H23.333V39.6666ZM37.333 32.6666H41.9997V37.3333H37.333V32.6666ZM30.333 32.6666H34.9997V37.3333H30.333V32.6666ZM23.333 32.6666H27.9997V37.3333H23.333V32.6666Z" fill="#90A4AE"/>
<path d="M18.667 31.5C26.399 31.5 32.667 25.232 32.667 17.5C32.667 9.76801 26.399 3.5 18.667 3.5C10.935 3.5 4.66699 9.76801 4.66699 17.5C4.66699 25.232 10.935 31.5 18.667 31.5Z" fill="#F44336"/>
<path d="M18.667 28C24.466 28 29.167 23.299 29.167 17.5C29.167 11.701 24.466 7 18.667 7C12.868 7 8.16699 11.701 8.16699 17.5C8.16699 23.299 12.868 28 18.667 28Z" fill="#EEEEEE"/>
<path d="M17.5 9.33337H19.8333V17.5H17.5V9.33337Z" fill="#F44336"/>
<path d="M23.9372 21.1166L22.3703 22.6846L17.916 18.2303L19.484 16.6635L23.9372 21.1166Z" fill="#F44336"/>
<path d="M18.667 19.25C19.6335 19.25 20.417 18.4665 20.417 17.5C20.417 16.5335 19.6335 15.75 18.667 15.75C17.7005 15.75 16.917 16.5335 16.917 17.5C16.917 18.4665 17.7005 19.25 18.667 19.25Z" fill="#F44336"/>
</svg>
