<svg width="56" height="56" viewBox="0 0 56 56" fill="none" xmlns="http://www.w3.org/2000/svg">
<path d="M53.666 44.3333C53.6683 46.166 53.1909 47.9675 52.2811 49.5585C51.3714 51.1496 50.061 52.4748 48.4803 53.4024C46.8996 54.33 45.1037 54.8277 43.271 54.846C41.4383 54.8644 39.6328 54.4027 38.0338 53.5068C36.4349 52.611 35.0983 51.3123 34.1569 49.7398C33.2156 48.1672 32.7022 46.3757 32.6679 44.5432C32.6335 42.7108 33.0794 40.9013 33.9613 39.2946C34.8431 37.6879 36.1301 36.34 37.6943 35.3849C39.2851 34.4136 41.1058 33.8833 42.9693 33.8484C44.8329 33.8135 46.6721 34.2753 48.2982 35.1863C49.9242 36.0973 51.2785 37.4247 52.2218 39.0322C53.1652 40.6397 53.6636 42.4694 53.666 44.3333Z" fill="url(#paint0_linear_574_2913)"/>
<path d="M43.1663 43.1668C42.9355 43.1668 42.71 43.0984 42.5181 42.9702C42.3263 42.842 42.1767 42.6598 42.0884 42.4466C42.0001 42.2334 41.977 41.9988 42.022 41.7725C42.067 41.5462 42.1782 41.3383 42.3413 41.1752C42.5045 41.012 42.7124 40.9009 42.9387 40.8559C43.165 40.8109 43.3996 40.834 43.6127 40.9223C43.8259 41.0106 44.0081 41.1601 44.1363 41.352C44.2645 41.5438 44.3329 41.7694 44.3329 42.0001C44.3329 42.3095 44.4559 42.6063 44.6747 42.8251C44.8934 43.0439 45.1902 43.1668 45.4996 43.1668C47.4363 43.1668 46.9113 39.6668 44.3329 38.7101C44.3329 38.4007 44.21 38.104 43.9912 37.8852C43.7724 37.6664 43.4757 37.5435 43.1663 37.5435C42.8569 37.5435 42.5601 37.6664 42.3413 37.8852C42.1225 38.104 41.9996 38.4007 41.9996 38.7101C41.228 38.9901 40.5794 39.5324 40.167 40.2421C39.7547 40.9519 39.605 41.7839 39.744 42.5929C39.883 43.4019 40.3019 44.1363 40.9275 44.6677C41.553 45.1991 42.3455 45.4938 43.1663 45.5001C43.397 45.5001 43.6226 45.5685 43.8144 45.6967C44.0063 45.8249 44.1558 46.0071 44.2441 46.2203C44.3324 46.4335 44.3555 46.6681 44.3105 46.8944C44.2655 47.1207 44.1544 47.3286 43.9912 47.4917C43.8281 47.6549 43.6202 47.766 43.3939 47.811C43.1676 47.8561 42.933 47.8329 42.7198 47.7446C42.5066 47.6563 42.3244 47.5068 42.1962 47.315C42.068 47.1231 41.9996 46.8975 41.9996 46.6668C41.9996 46.3574 41.8767 46.0606 41.6579 45.8418C41.4391 45.623 41.1424 45.5001 40.8329 45.5001C38.8963 45.5001 39.4213 49.0001 41.9996 49.9568C41.9996 50.2662 42.1225 50.563 42.3413 50.7817C42.5601 51.0005 42.8569 51.1235 43.1663 51.1235C43.4757 51.1235 43.7724 51.0005 43.9912 50.7817C44.21 50.563 44.3329 50.2662 44.3329 49.9568C45.1045 49.6768 45.7532 49.1346 46.1655 48.4248C46.5778 47.7151 46.7276 46.883 46.5886 46.074C46.4496 45.265 46.0307 44.5306 45.4051 43.9992C44.7795 43.4678 43.9871 43.1732 43.1663 43.1668Z" fill="white"/>
<path fill-rule="evenodd" clip-rule="evenodd" d="M1.16602 10.5V1.16667C1.16602 0.857247 1.28893 0.560501 1.50772 0.341709C1.72652 0.122916 2.02326 0 2.33268 0H11.666C11.9754 0 12.2722 0.122916 12.491 0.341709C12.7098 0.560501 12.8327 0.857247 12.8327 1.16667C12.8327 1.47609 12.7098 1.77283 12.491 1.99162C12.2722 2.21042 11.9754 2.33333 11.666 2.33333H3.49935V10.5C3.49935 10.8094 3.37643 11.1062 3.15764 11.325C2.93885 11.5438 2.6421 11.6667 2.33268 11.6667C2.02326 11.6667 1.72652 11.5438 1.50772 11.325C1.28893 11.1062 1.16602 10.8094 1.16602 10.5ZM2.33268 51.3333C2.02326 51.3333 1.72652 51.2104 1.50772 50.9916C1.28893 50.7728 1.16602 50.4761 1.16602 50.1667V40.8333C1.16602 40.5239 1.28893 40.2272 1.50772 40.0084C1.72652 39.7896 2.02326 39.6667 2.33268 39.6667C2.6421 39.6667 2.93885 39.7896 3.15764 40.0084C3.37643 40.2272 3.49935 40.5239 3.49935 40.8333V49H11.666C11.9754 49 12.2722 49.1229 12.491 49.3417C12.7098 49.5605 12.8327 49.8573 12.8327 50.1667C12.8327 50.4761 12.7098 50.7728 12.491 50.9916C12.2722 51.2104 11.9754 51.3333 11.666 51.3333H2.33268ZM50.166 2.33333V10.5C50.166 10.8094 50.2889 11.1062 50.5077 11.325C50.7265 11.5438 51.0233 11.6667 51.3327 11.6667C51.6421 11.6667 51.9388 11.5438 52.1576 11.325C52.3764 11.1062 52.4993 10.8094 52.4993 10.5V1.16667C52.4993 0.857247 52.3764 0.560501 52.1576 0.341709C51.9388 0.122916 51.6421 0 51.3327 0H41.9993C41.6899 0 41.3932 0.122916 41.1744 0.341709C40.9556 0.560501 40.8327 0.857247 40.8327 1.16667C40.8327 1.47609 40.9556 1.77283 41.1744 1.99162C41.3932 2.21042 41.6899 2.33333 41.9993 2.33333H50.166ZM34.9993 5.83333H31.4993V22.1667H46.666V18.6667V5.83333H34.9993ZM45.4994 26.8333H27.9993C27.6899 26.8333 27.3932 26.7104 27.1744 26.4916C26.9556 26.2728 26.8327 25.9761 26.8327 25.6667V7C26.8327 6.69058 26.9556 6.39384 27.1744 6.17504C27.3932 5.95625 27.6899 5.83333 27.9993 5.83333C28.3088 5.83333 28.6055 5.95625 28.8243 6.17504C29.0431 6.39384 29.166 6.69058 29.166 7V24.5H45.4994C45.8088 24.5 46.1055 24.6229 46.3243 24.8417C46.5431 25.0605 46.666 25.3572 46.666 25.6667C46.666 25.9761 46.5431 26.2728 46.3243 26.4916C46.1055 26.7104 45.8088 26.8333 45.4994 26.8333ZM8.16602 22.1667H23.3327C23.6421 22.1667 23.9388 22.0438 24.1576 21.825C24.3764 21.6062 24.4993 21.3094 24.4993 21V7C24.4993 6.69058 24.3764 6.39384 24.1576 6.17504C23.9388 5.95625 23.6421 5.83333 23.3327 5.83333C23.0233 5.83333 22.7265 5.95625 22.5077 6.17504C22.2889 6.39384 22.166 6.69058 22.166 7V19.8333H8.16602C7.8566 19.8333 7.55985 19.9562 7.34106 20.175C7.12227 20.3938 6.99935 20.6906 6.99935 21C6.99935 21.3094 7.12227 21.6062 7.34106 21.825C7.55985 22.0438 7.8566 22.1667 8.16602 22.1667ZM10.4993 5.83333H6.99935V17.5H19.8327V14V5.83333H10.4993ZM6.99935 35V30.3333C6.99935 30.0239 7.12227 29.7272 7.34106 29.5084C7.55985 29.2896 7.8566 29.1667 8.16602 29.1667H23.3327C23.6421 29.1667 23.9388 29.2896 24.1576 29.5084C24.3764 29.7272 24.4993 30.0239 24.4993 30.3333C24.4993 30.6428 24.3764 30.9395 24.1576 31.1583C23.9388 31.3771 23.6421 31.5 23.3327 31.5H9.33268V35C9.33268 35.3094 9.20977 35.6062 8.99097 35.825C8.77218 36.0438 8.47543 36.1667 8.16602 36.1667C7.8566 36.1667 7.55985 36.0438 7.34106 35.825C7.12227 35.6062 6.99935 35.3094 6.99935 35ZM12.8327 45.5H23.3327C23.6421 45.5 23.9388 45.3771 24.1576 45.1583C24.3764 44.9395 24.4993 44.6428 24.4993 44.3333V35C24.4993 34.6906 24.3764 34.3938 24.1576 34.175C23.9388 33.9562 23.6421 33.8333 23.3327 33.8333C23.0233 33.8333 22.7265 33.9562 22.5077 34.175C22.2889 34.3938 22.166 34.6906 22.166 35V43.1667H12.8327C12.5233 43.1667 12.2265 43.2896 12.0077 43.5084C11.7889 43.7272 11.666 44.0239 11.666 44.3333C11.666 44.6428 11.7889 44.9395 12.0077 45.1583C12.2265 45.3771 12.5233 45.5 12.8327 45.5ZM23.3327 26.8333H8.16602C7.8566 26.8333 7.55985 26.7104 7.34106 26.4916C7.12227 26.2728 6.99935 25.9761 6.99935 25.6667C6.99935 25.3572 7.12227 25.0605 7.34106 24.8417C7.55985 24.6229 7.8566 24.5 8.16602 24.5H23.3327C23.6421 24.5 23.9388 24.6229 24.1576 24.8417C24.3764 25.0605 24.4993 25.3572 24.4993 25.6667C24.4993 25.9761 24.3764 26.2728 24.1576 26.4916C23.9388 26.7104 23.6421 26.8333 23.3327 26.8333ZM12.8327 36.1667H18.666C18.9754 36.1667 19.2722 36.0438 19.491 35.825C19.7098 35.6062 19.8327 35.3094 19.8327 35C19.8327 34.6906 19.7098 34.3938 19.491 34.175C19.2722 33.9562 18.9754 33.8333 18.666 33.8333H12.8327C12.5233 33.8333 12.2265 33.9562 12.0077 34.175C11.7889 34.3938 11.666 34.6906 11.666 35C11.666 35.3094 11.7889 35.6062 12.0077 35.825C12.2265 36.0438 12.5233 36.1667 12.8327 36.1667ZM6.99935 44.3333V39.6667C6.99935 39.3572 7.12227 39.0605 7.34106 38.8417C7.55985 38.6229 7.8566 38.5 8.16602 38.5H18.666C18.9754 38.5 19.2722 38.6229 19.491 38.8417C19.7098 39.0605 19.8327 39.3572 19.8327 39.6667C19.8327 39.9761 19.7098 40.2728 19.491 40.4916C19.2722 40.7104 18.9754 40.8333 18.666 40.8333H9.33268V44.3333C9.33268 44.6428 9.20977 44.9395 8.99097 45.1583C8.77218 45.3771 8.47543 45.5 8.16602 45.5C7.8566 45.5 7.55985 45.3771 7.34106 45.1583C7.12227 44.9395 6.99935 44.6428 6.99935 44.3333ZM27.9993 31.5H36.166C36.4754 31.5 36.7722 31.3771 36.991 31.1583C37.2098 30.9395 37.3327 30.6428 37.3327 30.3333C37.3327 30.0239 37.2098 29.7272 36.991 29.5084C36.7722 29.2896 36.4754 29.1667 36.166 29.1667H27.9993C27.6899 29.1667 27.3932 29.2896 27.1744 29.5084C26.9556 29.7272 26.8327 30.0239 26.8327 30.3333C26.8327 30.6428 26.9556 30.9395 27.1744 31.1583C27.3932 31.3771 27.6899 31.5 27.9993 31.5ZM26.8327 35C26.8327 34.6906 26.9556 34.3938 27.1744 34.175C27.3932 33.9562 27.6899 33.8333 27.9993 33.8333C28.3088 33.8333 28.6055 33.9562 28.8243 34.175C29.0431 34.3938 29.166 34.6906 29.166 35V37.3333C29.166 37.6427 29.0431 37.9395 28.8243 38.1583C28.6055 38.3771 28.3088 38.5 27.9993 38.5C27.6899 38.5 27.3932 38.3771 27.1744 38.1583C26.9556 37.9395 26.8327 37.6427 26.8327 37.3333V35ZM27.1744 41.175C26.9556 41.3938 26.8327 41.6906 26.8327 42V44.3333C26.8327 44.6427 26.9556 44.9395 27.1744 45.1583C27.3932 45.3771 27.6899 45.5 27.9993 45.5C28.3088 45.5 28.6055 45.3771 28.8243 45.1583C29.0431 44.9395 29.166 44.6427 29.166 44.3333V42C29.166 41.6906 29.0431 41.3938 28.8243 41.175C28.6055 40.9562 28.3088 40.8333 27.9993 40.8333C27.6899 40.8333 27.3932 40.9562 27.1744 41.175Z" fill="url(#paint1_linear_574_2913)"/>
<defs>
<linearGradient id="paint0_linear_574_2913" x1="32.666" y1="33.8333" x2="53.666" y2="54.8333" gradientUnits="userSpaceOnUse">
<stop stop-color="#10A831"/>
<stop offset="1" stop-color="#A2E25F"/>
</linearGradient>
<linearGradient id="paint1_linear_574_2913" x1="1.16602" y1="0" x2="45.4993" y2="43.1667" gradientUnits="userSpaceOnUse">
<stop stop-color="#10A831"/>
<stop offset="1" stop-color="#A4E65E"/>
</linearGradient>
</defs>
</svg>
