<svg width="56" height="46" viewBox="0 0 56 46" fill="none" xmlns="http://www.w3.org/2000/svg">
<path fill-rule="evenodd" clip-rule="evenodd" d="M14.6903 29.1689H14.7019L22.1765 29.1716L22.1831 40.8307L7.03031 40.8401L6.88481 40.6219L6.86426 40.591L10.0907 34.0641L14.6903 29.1689Z" fill="#2A8C00"/>
<path fill-rule="evenodd" clip-rule="evenodd" d="M41.1336 29.1519L48.4863 29.7193L55.2032 29.1519L55.1918 29.1355L46.6236 16.7911L37.1846 23.6066L41.1087 29.1169L41.1336 29.1519Z" fill="#2A8C00"/>
<path fill-rule="evenodd" clip-rule="evenodd" d="M20.9295 0H20.835L15.6221 7.6082L25.0677 14.2797L27.9101 10.2354L24.795 4.64469L20.9295 0Z" fill="#2A8C00"/>
<path fill-rule="evenodd" clip-rule="evenodd" d="M33.8923 29.1472L35.0094 29.1478L41.1336 29.1518H35.0094H41.1336H55.2032L55.9988 30.2981L50.0845 40.8353L33.892 40.8401V45.7839L23.0059 34.7583L33.9014 23.7804L33.8923 29.1472Z" fill="#40D800"/>
<path fill-rule="evenodd" clip-rule="evenodd" d="M18.5016 23.676L16.7335 26.1925L16.5701 26.4252L17.7947 24.6377L16.5701 26.4252L14.6422 29.1689H14.6902L6.86421 40.591L0 30.2944L9.23928 17.028L4.90073 13.9138L19.9962 11.2977L22.5768 26.601L18.5016 23.676Z" fill="#40D800"/>
<path fill-rule="evenodd" clip-rule="evenodd" d="M40.1278 7.4171L44.1738 4.51299L41.5931 19.8162L26.4976 17.2001L30.6337 14.2315L24.2521 4.87449L20.9277 0L30.6337 14.2315L20.9277 0H20.9349H35.0221L40.1278 7.4171Z" fill="#40D800"/>
</svg>
