<svg width="56" height="53" viewBox="0 0 56 53" fill="none" xmlns="http://www.w3.org/2000/svg">
<path fill-rule="evenodd" clip-rule="evenodd" d="M15.1337 0.0193148L50.6587 5.21396C51.1567 5.28678 51.5792 5.55607 51.8586 5.93113C52.1379 6.30619 52.275 6.78807 52.2021 7.28603L49.6393 24.8128C49.5665 25.3108 49.2972 25.7332 48.9221 26.0126C48.547 26.292 48.0652 26.429 47.5672 26.3562L12.0422 21.1616C11.5443 21.0888 11.1218 20.8195 10.8424 20.4444C10.5631 20.0693 10.426 19.5875 10.4988 19.0895L13.0617 1.56272C13.1345 1.06477 13.4038 0.642286 13.7788 0.362956C14.154 0.0835664 14.6357 -0.0535002 15.1337 0.0193148Z" fill="#33691E"/>
<path fill-rule="evenodd" clip-rule="evenodd" d="M15.0457 0.621249C14.7247 0.5743 14.4022 0.657156 14.1422 0.850797C13.8822 1.04444 13.7105 1.32973 13.6636 1.6507L11.1007 19.1775C11.0538 19.4985 11.1366 19.821 11.3303 20.081C11.5239 20.341 11.8092 20.5127 12.1303 20.5597L47.6552 25.7543C47.9763 25.8012 48.2987 25.7184 48.5587 25.5247C48.8187 25.3311 48.9904 25.0458 49.0374 24.7248L51.6002 7.19802C51.6471 6.877 51.5643 6.5545 51.3707 6.29454C51.177 6.03452 50.8918 5.86284 50.5707 5.8159L15.0457 0.621249Z" fill="#689F38"/>
<path fill-rule="evenodd" clip-rule="evenodd" d="M14.5985 1.00948L18.6133 1.59655C18.6262 1.67627 18.6366 1.75682 18.6442 1.83814C18.6708 2.11865 18.6632 2.41617 18.6178 2.7268C18.4702 3.73617 17.9276 4.59011 17.1695 5.15474C16.4115 5.7193 15.4379 5.99479 14.4285 5.84715C14.1638 5.80847 13.9234 5.7493 13.7082 5.67217L13.6787 5.66149L14.3297 1.20961C14.3389 1.1463 14.3743 1.0918 14.4235 1.05506C14.4728 1.01839 14.5351 1.00021 14.5985 1.00948Z" fill="#33691E"/>
<path fill-rule="evenodd" clip-rule="evenodd" d="M11.7836 20.2537L15.7985 20.8408C15.8336 20.7681 15.8667 20.6939 15.8973 20.6182C16.0031 20.3571 16.081 20.0698 16.1264 19.7591C16.274 18.7498 15.9986 17.7763 15.4339 17.0182C14.8694 16.2602 14.0154 15.7175 13.006 15.5699C12.7413 15.5312 12.494 15.519 12.2657 15.5313L12.2344 15.5332L11.5834 19.985C11.5742 20.0483 11.5924 20.1107 11.6291 20.16C11.6658 20.2092 11.7203 20.2445 11.7836 20.2537Z" fill="#33691E"/>
<path fill-rule="evenodd" clip-rule="evenodd" d="M48.0747 25.5604L44.0599 24.9733C44.047 24.8936 44.0367 24.813 44.029 24.7317C44.0024 24.4513 44.01 24.1537 44.0554 23.8431C44.203 22.8337 44.7456 21.9797 45.5037 21.4151C46.2617 20.8506 47.2353 20.5751 48.2447 20.7227C48.5094 20.7614 48.7498 20.8206 48.965 20.8977L48.9945 20.9084L48.3435 25.3602C48.3343 25.4236 48.2989 25.4781 48.2497 25.5148C48.2004 25.5515 48.1381 25.5696 48.0747 25.5604Z" fill="#33691E"/>
<path fill-rule="evenodd" clip-rule="evenodd" d="M50.888 6.31607L46.8731 5.729C46.838 5.8017 46.805 5.87593 46.7743 5.95158C46.6686 6.21278 46.5907 6.50003 46.5452 6.81066C46.3976 7.82003 46.673 8.79361 47.2377 9.55164C47.8022 10.3096 48.6562 10.8523 49.6656 10.9999C49.9303 11.0386 50.1777 11.0508 50.4059 11.0385L50.4372 11.0366L51.0882 6.58483C51.0974 6.52152 51.0793 6.45916 51.0425 6.40991C51.0059 6.3606 50.9513 6.32534 50.888 6.31607Z" fill="#33691E"/>
<path fill-rule="evenodd" clip-rule="evenodd" d="M32.6302 4.43387C35.0474 4.78732 37.0927 6.08718 38.4452 7.903C39.7977 9.71883 40.4576 12.0506 40.1041 14.4679C39.7506 16.885 38.4508 18.9303 36.6349 20.2829C34.8191 21.6353 32.4873 22.2952 30.0701 21.9418C27.6529 21.5883 25.6077 20.2884 24.2551 18.4726C22.9026 16.6567 22.2427 14.325 22.5962 11.9078C22.9497 9.49054 24.2495 7.44534 26.0653 6.09278C27.8812 4.74024 30.213 4.08037 32.6302 4.43387Z" fill="#33691E"/>
<path d="M30.5028 18.5052L30.6575 17.4473C30.1372 17.3036 29.725 17.1224 29.4187 16.9033C29.1124 16.6842 28.8659 16.3653 28.6805 15.9506C28.4954 15.534 28.4227 15.0498 28.4647 14.4962L29.5579 14.451C29.5571 15.0312 29.6406 15.4698 29.8104 15.7673C30.0522 16.1881 30.379 16.4491 30.7884 16.5521L31.281 13.1837C30.8573 13.0377 30.4384 12.8042 30.02 12.4827C29.7104 12.2447 29.4896 11.9459 29.3556 11.5859C29.2217 11.226 29.1866 10.8354 29.2485 10.4119C29.3585 9.65914 29.7148 9.08789 30.3148 8.69996C30.7182 8.43705 31.276 8.3239 31.9868 8.35603L32.0608 7.85022L32.6851 7.94152L32.6112 8.44733C33.2168 8.59538 33.6802 8.84766 33.9955 9.20128C34.4031 9.65252 34.603 10.2209 34.5993 10.9052L33.4812 10.9098C33.4798 10.4852 33.396 10.1469 33.2295 9.89707C33.0651 9.64751 32.8155 9.46136 32.4805 9.34065L32.0344 12.3917C32.5466 12.604 32.8847 12.7601 33.0465 12.8596C33.3545 13.0523 33.5977 13.2682 33.7742 13.5053C33.9524 13.7445 34.0769 14.0149 34.1456 14.3161C34.2161 14.6196 34.2271 14.9369 34.1784 15.2702C34.0709 16.0048 33.7468 16.5807 33.2095 17.0024C32.6719 17.4261 32.0295 17.5987 31.2836 17.5266L31.1271 18.5965L30.5028 18.5052ZM31.858 9.23729C31.4374 9.2393 31.0881 9.35634 30.8122 9.58873C30.5363 9.82105 30.3718 10.1189 30.3184 10.4842C30.2659 10.8435 30.3219 11.1613 30.4891 11.4338C30.6563 11.7064 30.9691 11.951 31.4298 12.1659L31.858 9.23729ZM31.4127 16.6433C31.8315 16.6533 32.1969 16.5243 32.5105 16.2585C32.8241 15.9927 33.014 15.633 33.0801 15.1813C33.1362 14.7979 33.085 14.4747 32.9304 14.2142C32.7737 13.9535 32.4248 13.6893 31.8838 13.4215L31.4127 16.6433Z" fill="#E6EE9C"/>
<path fill-rule="evenodd" clip-rule="evenodd" d="M6.25699 4.90157L41.8562 0.24271C42.3551 0.177395 42.8349 0.321667 43.2058 0.606667C43.5766 0.891608 43.8395 1.31811 43.9048 1.81712L46.2033 19.3805C46.2686 19.8795 46.1243 20.3592 45.8393 20.7301C45.5543 21.101 45.1278 21.3638 44.6289 21.4291L9.02969 26.0881C8.53073 26.1533 8.05097 26.009 7.6801 25.724C7.3093 25.439 7.04638 25.0125 6.98107 24.5136L4.68253 6.95019C4.61721 6.45118 4.76154 5.97141 5.04654 5.6006C5.33154 5.22979 5.75798 4.96688 6.25699 4.90157Z" fill="#33691E"/>
<path fill-rule="evenodd" clip-rule="evenodd" d="M6.33496 5.50482C6.01323 5.54693 5.72545 5.71429 5.52786 5.97136C5.33032 6.22837 5.24268 6.54957 5.28472 6.87124L7.58333 24.4346C7.62538 24.7564 7.7928 25.0441 8.04981 25.2417C8.30687 25.4393 8.62807 25.5269 8.9498 25.4848L44.5489 20.826C44.8707 20.7839 45.1584 20.6165 45.356 20.3594C45.5536 20.1024 45.6412 19.7812 45.5992 19.4594L43.3006 1.89608C43.2585 1.57441 43.0912 1.28657 42.8341 1.08903C42.577 0.89149 42.2558 0.803796 41.9341 0.845902L6.33496 5.50482Z" fill="#689F38"/>
<path fill-rule="evenodd" clip-rule="evenodd" d="M6.00985 5.99992L10.0331 5.47339C10.0672 5.54662 10.099 5.62132 10.1285 5.6975C10.2303 5.96018 10.3039 6.24861 10.3447 6.55989C10.4771 7.57138 10.187 8.54066 9.61097 9.29013C9.03507 10.0394 8.17298 10.5693 7.16154 10.7016C6.89627 10.7363 6.64877 10.7448 6.42075 10.7291L6.38945 10.7268L5.80563 6.26562C5.79731 6.20219 5.8165 6.14006 5.85388 6.0914C5.89132 6.04268 5.94636 6.00825 6.00985 5.99992Z" fill="#33691E"/>
<path fill-rule="evenodd" clip-rule="evenodd" d="M8.53408 25.2843L12.5573 24.7578C12.5714 24.6783 12.583 24.5979 12.5919 24.5167C12.6227 24.2366 12.6196 23.939 12.5788 23.6277C12.4465 22.6163 11.9167 21.7542 11.1672 21.1783C10.4179 20.6024 9.44855 20.3122 8.43705 20.4446C8.17178 20.4794 7.93048 20.5349 7.71416 20.6087L7.68457 20.619L8.26839 25.0801C8.27666 25.1436 8.31115 25.1986 8.35981 25.2361C8.40853 25.2735 8.4706 25.2926 8.53408 25.2843Z" fill="#33691E"/>
<path fill-rule="evenodd" clip-rule="evenodd" d="M44.8996 20.5252L40.8764 21.0517C40.8424 20.9785 40.8105 20.9038 40.781 20.8276C40.6791 20.5649 40.6056 20.2766 40.5649 19.9652C40.4325 18.9538 40.7225 17.9844 41.2986 17.235C41.8744 16.4857 42.7365 15.9558 43.748 15.8235C44.0133 15.7888 44.2607 15.7803 44.4888 15.796L44.52 15.7983L45.1039 20.2595C45.1122 20.323 45.093 20.385 45.0557 20.4337C45.0182 20.4824 44.9631 20.5169 44.8996 20.5252Z" fill="#33691E"/>
<path fill-rule="evenodd" clip-rule="evenodd" d="M42.3772 1.2407L38.354 1.76724C38.3399 1.84673 38.3284 1.92716 38.3195 2.0083C38.2887 2.2884 38.2918 2.58598 38.3325 2.89731C38.4649 3.90875 38.9946 4.77078 39.7441 5.3468C40.4934 5.92265 41.4628 6.21279 42.4743 6.08044C42.7396 6.04572 42.9809 5.99015 43.1972 5.91627L43.2268 5.90605L42.643 1.44491C42.6346 1.38143 42.6002 1.32639 42.5515 1.28894C42.5028 1.2515 42.4407 1.23238 42.3772 1.2407Z" fill="#33691E"/>
<path fill-rule="evenodd" clip-rule="evenodd" d="M24.2947 4.39317C26.717 4.07617 29.0386 4.77107 30.8338 6.15083C32.629 7.53054 33.8979 9.5951 34.215 12.0174C34.532 14.4397 33.8371 16.7613 32.4574 18.5565C31.0776 20.3518 29.013 21.6207 26.5908 21.9377C24.1685 22.2547 21.8469 21.5598 20.0517 20.18C18.2564 18.8003 16.9875 16.7357 16.6705 14.3135C16.3535 11.8911 17.0484 9.56958 18.4281 7.77438C19.8079 5.9791 21.8725 4.71018 24.2947 4.39317Z" fill="#33691E"/>
<path d="M26.0726 18.5129L25.9338 17.4528C25.3941 17.4559 24.9481 17.3936 24.5938 17.266C24.2395 17.1385 23.9155 16.8985 23.6244 16.55C23.333 16.1994 23.1314 15.7532 23.0213 15.209L24.0611 14.8683C24.218 15.4268 24.4177 15.8262 24.6618 16.0664C25.009 16.4056 25.3945 16.5679 25.8164 16.5557L25.3746 13.1803C24.9274 13.155 24.4607 13.0442 23.9707 12.8485C23.608 12.7036 23.3143 12.4761 23.0875 12.1661C22.8607 11.8562 22.7208 11.4898 22.6652 11.0654C22.5665 10.311 22.754 9.66451 23.2259 9.12811C23.5427 8.7654 24.0487 8.50484 24.7416 8.34256L24.6752 7.83563L25.3008 7.75378L25.3671 8.26071C25.9903 8.23845 26.5048 8.35526 26.9044 8.60991C27.4193 8.93329 27.7661 9.42599 27.9486 10.0855L26.8739 10.3938C26.7571 9.98565 26.5844 9.68294 26.3563 9.4877C26.1303 9.29223 25.8395 9.18097 25.4842 9.15581L25.8844 12.2133C26.4351 12.2784 26.8028 12.3366 26.9855 12.3884C27.3344 12.4901 27.6271 12.6318 27.8615 12.8119C28.098 12.9937 28.2913 13.2201 28.4393 13.4912C28.5896 13.7641 28.6865 14.0665 28.7302 14.4005C28.8265 15.1367 28.6712 15.779 28.2688 16.3309C27.8666 16.8848 27.2953 17.2255 26.5578 17.3589L26.6981 18.431L26.0726 18.5129ZM24.8571 9.22561C24.4529 9.34195 24.1486 9.54953 23.9463 9.84817C23.7439 10.1468 23.6666 10.4781 23.7145 10.8442C23.7616 11.2043 23.9019 11.4948 24.137 11.7117C24.3719 11.9284 24.7395 12.0788 25.2412 12.1605L24.8571 9.22561ZM26.442 16.4738C26.8478 16.3696 27.1643 16.1461 27.3938 15.805C27.6233 15.464 27.7084 15.0662 27.6491 14.6136C27.5988 14.2294 27.4618 13.9322 27.2421 13.7236C27.0205 13.5153 26.613 13.3558 26.0195 13.2453L26.442 16.4738Z" fill="#E6EE9C"/>
<path d="M56.0003 23.0505H32.667V41.4056H56.0003V23.0505Z" fill="#FFC7B4"/>
<path d="M3.07211 14.142H52.9279C54.6201 14.142 56 15.5219 56 17.2141V26.7607V26.7863H40.752C40.1137 26.7863 39.5342 27.0468 39.1147 27.4662C38.6952 27.8857 38.4348 28.4652 38.4348 29.1035V37.6055C38.4348 38.2438 38.6952 38.8233 39.1147 39.2428C39.5341 39.6622 40.1137 39.9227 40.752 39.9227H56V39.9482V49.4949C56 51.187 54.6201 52.567 52.9279 52.567H3.07211C1.37989 52.567 0 51.1871 0 49.4949V17.2141C0 15.5219 1.37983 14.142 3.07211 14.142Z" fill="url(#paint0_linear_574_2826)"/>
<path d="M55.8167 28.937H40.0632C40.0139 28.937 39.9682 28.958 39.9345 28.9917C39.9008 29.0254 39.8799 29.0711 39.8799 29.1203V37.6223C39.8799 37.6716 39.9008 37.7173 39.9345 37.751C39.9682 37.7847 40.0139 37.8057 40.0632 37.8057H55.8167C55.866 37.8057 55.9117 37.7847 55.9454 37.751C55.9791 37.7172 56 37.6716 56 37.6223V29.1203C56 29.0711 55.9791 29.0254 55.9454 28.9918C55.9117 28.958 55.866 28.937 55.8167 28.937ZM45.7859 30.6699C46.5297 30.6699 47.2053 30.9736 47.6944 31.4628C48.1837 31.952 48.4874 32.6276 48.4874 33.3713C48.4874 34.1151 48.1837 34.7906 47.6944 35.2798C47.2053 35.769 46.5297 36.0727 45.7859 36.0727C45.0422 36.0727 44.3667 35.769 43.8775 35.2798C43.3882 34.7906 43.0846 34.1151 43.0846 33.3713C43.0846 32.6276 43.3882 31.952 43.8775 31.4628C44.3667 30.9736 45.0422 30.6699 45.7859 30.6699Z" fill="#F35B26"/>
<defs>
<linearGradient id="paint0_linear_574_2826" x1="56" y1="14.142" x2="-3.13434e-06" y2="52.5919" gradientUnits="userSpaceOnUse">
<stop stop-color="#FD7128"/>
<stop offset="1" stop-color="#EA4624"/>
</linearGradient>
</defs>
</svg>
